<svg xmlns="http://www.w3.org/2000/svg" viewBox="4093.737 395.195 532.338 213.005"><defs><style>.a{fill:#d01530;}.b{fill:#d11630;}.c{fill:#e73054;}.d{fill:#ba1838;}.e{fill:#d11631;}.f{fill:#d11731;}.g{fill:#d0405d;}</style></defs><g transform="translate(4448.637 430.79)"><path class="a" d="M1292.628,182.26c-2.935,3.759-5.87,7.492-8.779,11.25q-40.045,52.17-80.064,104.341c-.669.875-1.339,1.725-2.085,2.523.412-3.475,1.751-6.642,2.806-9.886q25.95-79.626,51.926-159.2c.155-.438.077-1.081.7-1.287l.052.1a50.36,50.36,0,0,1,4.84,6.1c4.557,6.977,9.165,13.9,13.67,20.9C1281.146,165.6,1286.578,174.125,1292.628,182.26Z" transform="translate(-1155.868 -122.964)"/><path class="a" d="M-354.8,95.893c0-11.1.026-22.217-.026-33.313,0-1.056.283-1.364,1.313-1.416,2.574-.129,5.149-.129,7.723-.1,7.08.051,14.159.077,21.213.232a37.176,37.176,0,0,1,13.85,2.909A18.238,18.238,0,0,1-299.73,77.537a23.087,23.087,0,0,1-2.214,16.914,15.935,15.935,0,0,1-5.844,5.638c-.772.463-1.519.953-2.317,1.416-.9.515-1.056,1.03-.515,2.034,3.475,6.462,7.234,12.743,10.915,19.076,1.364,2.343,2.652,4.711,4.016,7.028.412.721.386.978-.566,1.081-4.145.412-8.315.18-12.46.18-1.854,0-3.681-.077-5.535.051a2.783,2.783,0,0,1-2.909-1.622q-6.256-11.083-12.537-22.166c-.257-.438-.335-1.184-1.03-1.158-1.133.051-2.317-.36-3.424.154a1.488,1.488,0,0,0-.747,1.519c.051,7.131.077,14.236.129,21.368,0,1.416-.386,1.905-1.751,1.879-5.612-.026-11.224-.077-16.862-.051-1.159,0-1.519-.335-1.519-1.545.052-11.147.026-22.294.026-33.441Zm19.952-11.121h.051c0,2.317.026,4.634-.026,6.951-.026.978.335,1.236,1.287,1.21,2.085-.077,4.2.026,6.307-.051,5.252-.206,7.9-2.42,8.753-7.286a7.387,7.387,0,0,0-6.127-8.959c-2.935-.592-5.9-.386-8.83-.438-.953-.026-1.416.644-1.416,1.622Z" transform="translate(0 -71.763)"/><path class="b" d="M868.534,113.036a4.005,4.005,0,0,0-1.39,1.287c-4.969,6.513-11.662,8.264-19.359,6.719-7.131-1.442-12-5.844-14.468-12.589a37.444,37.444,0,0,1,.077-27.057c2.626-6.822,7.517-11.4,14.829-12.949a20.394,20.394,0,0,1,14.571,2.008,20.573,20.573,0,0,1,3.475,3.038c.463.412.953,1.133,1.57.9.463-.18.232-1,.257-1.545.335-7.105.077-14.236.154-21.368.026-1.236.026-2.5.026-3.733,0-.592.18-.85.824-.85,5.329.026,10.632.026,15.961.026.7,0,.9.283.875.927-.026.9,0,1.8,0,2.7q.039,33.828.077,67.681c0,1.673-.309,2.085-1.982,2.137-4.891.1-9.783.1-14.674.18-.824,0-.875-.541-1.03-1.056a12.336,12.336,0,0,1,.052-5.226C868.431,113.886,868.482,113.551,868.534,113.036ZM848.865,94.449a19.192,19.192,0,0,0,1.622,8.676c1.648,3.45,4.814,5.2,8.959,4.969a8.972,8.972,0,0,0,8.212-5.973,23.327,23.327,0,0,0,.283-14.159,8.85,8.85,0,0,0-8.959-6.719q-6.835-.077-9.113,6.282A23.246,23.246,0,0,0,848.865,94.449Z" transform="translate(-880.472 -61.258)"/><path class="a" d="M133.665,113.655a33.671,33.671,0,0,1,.1,5.329c-.026.7-.283.953-1.03.953-4.042-.026-8.058.026-12.1.026a22.746,22.746,0,0,1-3.707-.438c-.644-.1-.9-.386-.85-1.03a5.367,5.367,0,0,0,0-.644q.077-34.948.129-69.9c0-1.339.36-1.622,1.622-1.57,4.016.154,8.058-.283,12.1-.026a21.884,21.884,0,0,1,3.167.489c.644.129.824.412.8,1.056-.335,7.929.077,15.884-.154,23.813-.026,1.081,0,2.188,0,3.372a3.891,3.891,0,0,0,1.7-1.287c8.058-10.246,28.087-8.6,33.6,7.646a37.361,37.361,0,0,1-.85,27.752,19.687,19.687,0,0,1-19.746,11.842c-5.149-.309-9.6-2.034-13.026-6.05a10.406,10.406,0,0,0-1.236-1.133A4.163,4.163,0,0,0,133.665,113.655Zm-.412-19.36a17.3,17.3,0,0,0,.36,4.325,21.4,21.4,0,0,0,.9,3.347,9.025,9.025,0,0,0,8.032,5.689c4.479.1,7.775-1.673,9.242-5.175a21.188,21.188,0,0,0,0-16.4c-1.39-3.527-4.351-5.1-8.006-5.252-3.4-.129-6.359.927-8.29,3.965C133.69,87.6,133.2,90.743,133.253,94.3Z" transform="translate(-349.727 -60.795)"/><path class="c" d="M1341.356,7.01c.309-.721-.283-1.133-.566-1.6q-12.319-19.154-24.714-38.256c-.464-.721-1.21-1.57-.85-2.317s1.467-.309,2.24-.309c8.8-.026,17.583-.026,26.388,0,3.3,0,6.59.154,9.911.232a2.524,2.524,0,0,1,1.416.541q27.881,18.3,55.787,36.608c.824.541,1.725.953,2.574,1.467a2.44,2.44,0,0,1,1.442,2.111c-2.986.026-5.947.566-8.933.541-19.643-.077-39.285-.026-58.954-.051a5.055,5.055,0,0,0-2.6.489,5.765,5.765,0,0,0-3.064.618Z" transform="translate(-1240.097)"/><path class="d" d="M1417.2,125.485a5.532,5.532,0,0,1,3.064-.618c.721,0,1.467.026,2.188.026h61.116a31.681,31.681,0,0,0,7.466-.9,5.172,5.172,0,0,1,2.085-.129c.026.129.077.257.1.386a9.178,9.178,0,0,1-1.931,3.836c-13.026,15.884-25.049,32.515-37.792,48.6-.257.335-.566.644-.849.953-6.05-8.109-11.482-16.656-16.94-25.152-4.505-7-9.088-13.953-13.67-20.9A53,53,0,0,0,1417.2,125.485Z" transform="translate(-1315.89 -118.372)"/><path class="b" d="M1104.7,159.333c-5.87-.1-11.4.051-16.94.206-1.03.026-1.261.335-1.133,1.364a9.627,9.627,0,0,0,7.311,8.521c4.068,1.081,7.749.463,10.632-2.883a4.1,4.1,0,0,0,.953-1.519c.36-1.287,1.159-1.442,2.317-1.287,2.986.438,6-.129,8.985-.051,1.467.051,2.909.232,4.351.412.824.1,1.055.309.849,1.21-1.622,7.183-5.767,12.2-12.743,14.6a36.206,36.206,0,0,1-25.693-.309c-8.444-3.321-13.181-9.86-14.623-18.742-1.133-7.08-.257-13.85,3.475-20.106,3.707-6.2,9.345-9.834,16.245-11.456,8.882-2.06,17.326-1,24.792,4.608,4.479,3.372,6.822,8.135,7.955,13.567a51.246,51.246,0,0,1,.8,10.864c0,.9-.386,1.03-1.158,1.055C1115.513,159.642,1109.927,159.256,1104.7,159.333Zm-8.753-9.808h7.466c.824,0,1.673-.18,1.751-1.107.232-2.523-2.343-6.487-4.788-7.594a9.776,9.776,0,0,0-13.619,7.363c-.1.721-.026,1.03.85,1.133C1090.542,149.679,1093.5,149.447,1095.948,149.524Z" transform="translate(-1056.964 -121.713)"/><path class="a" d="M-74.955,178.424a6.617,6.617,0,0,0-2.6,2.008c-5.87,6.153-13,6.848-20.621,4.454-5.586-1.751-8.418-6.179-9.757-11.662a23.213,23.213,0,0,1-.566-5.355c-.026-10.735.129-21.445-.1-32.18-.026-1.287.463-1.879,1.673-1.879,4.582,0,9.191,0,13.773.1,2.111.051,2.214.309,2.214,2.394q-.039,14.211-.026,28.447a16.326,16.326,0,0,0,.36,2.935c1.056,5.381,7.028,5.947,10.607,4.3,3.167-1.467,4.3-4.119,4.479-7.466.463-8.521.1-17.068.232-25.59.026-1.416.1-2.832.18-4.248.026-.412.077-.7.669-.7,4.2,0,8.393-.309,12.615-.18a20.786,20.786,0,0,1,3.3.489c.644.129.9.412.85,1.03-.026.335,0,.7,0,1.03V182.7c0,1.776,0,1.776-1.828,2.034-4.145.592-8.315.257-12.46.206a14.034,14.034,0,0,0-1.8-.026c-1.184.154-1.519-.438-1.493-1.467A21.289,21.289,0,0,1-74.955,178.424Z" transform="translate(-182.89 -125.77)"/><path class="b" d="M347.9,201.662c-2.394.257-4.788-.026-7.208.232-.875.1-1.261-.978-.8-2.111.747-1.879,1.6-3.707,2.317-5.586,1.776-4.582,3.527-9.216,5.3-13.8a1.92,1.92,0,0,0-.026-1.6c-6.153-13.773-12.254-27.572-18.407-41.371-1.519-3.424-1.493-3.656,2.24-3.707a113.471,113.471,0,0,1,13.232.129,3.048,3.048,0,0,1,3.038,2.265c2.7,7.311,5.586,14.571,8.418,21.831.18.463.206,1.133,1,1.158.875,0,.85-.721,1.056-1.236q3.977-11.2,7.9-22.449a2.33,2.33,0,0,1,2.574-1.776c3.99.077,7.981,0,11.971.051,2.883.051,2.909.1,1.854,2.677q-12.821,32.013-25.59,64.025a1.665,1.665,0,0,1-1.673,1.261C352.684,201.688,350.29,201.662,347.9,201.662Z" transform="translate(-507.193 -125.632)"/><path class="e" d="M570.555,145.673c-1.931,0-3.862-.051-5.792.026a1.621,1.621,0,0,1-1.673-.875c-.154-.257-.309-.515-.438-.772a7.115,7.115,0,0,0-9.422-2.858,3.42,3.42,0,0,0-2.214,3.192c.026,1.519,1.081,2.291,2.291,2.806a29.972,29.972,0,0,0,6.384,1.339,70.147,70.147,0,0,1,10.04,2.06c8.6,2.677,11.611,8.5,10.529,17.223-.824,6.848-4.891,11.121-11.327,13.078a38.487,38.487,0,0,1-23.3-.051c-6.024-1.931-10.014-5.973-11.379-12.306-.7-3.192-.489-3.45,2.677-3.475a108.7,108.7,0,0,1,11.945.18c.489.051,1.03-.077,1.21.644,1.21,4.557,5.715,5.844,10.092,4.428a4.663,4.663,0,0,0,2.265-1.158c1.751-2.034,1.03-4.505-1.622-5.355a62.357,62.357,0,0,0-8.907-1.905,43.324,43.324,0,0,1-8.47-2.085c-4.969-1.931-8.058-5.406-8.676-10.812-.721-6.076.566-11.43,5.638-15.395a22.1,22.1,0,0,1,10.143-4.042,36.475,36.475,0,0,1,17.763,1.236,15.634,15.634,0,0,1,10.529,13.644c.052.8-.18,1.03-.978,1.107C575.421,145.725,573,145.6,570.555,145.673Z" transform="translate(-660.009 -122.213)"/><path class="e" d="M755.532,159.639c0,8.032-.026,16.039.026,24.071,0,1.184-.36,1.416-1.467,1.39-3.81-.051-7.62.051-11.456,0-4.634-.051-4.634-.1-4.608-4.685q0-22.2-.026-44.383c0-1.107.257-1.57,1.39-1.725a48,48,0,0,1,7.44-.335c2.5.026,4.969.129,7.466.077,1.03-.026,1.287.309,1.287,1.313q-.039,12.164-.026,24.328C755.557,159.639,755.532,159.639,755.532,159.639Z" transform="translate(-811.543 -125.907)"/><path class="f" d="M744.406,63.452a9.407,9.407,0,0,1-9.088-6.1,9.129,9.129,0,0,1,3.192-10.22,10.714,10.714,0,0,1,11.4-.36,8.962,8.962,0,0,1,4.119,9.4C753.314,60.362,749.246,63.426,744.406,63.452Z" transform="translate(-809.197 -60.072)"/><path class="g" d="M1499.77,124.2a31.519,31.519,0,0,1-7.466.9q-30.545-.039-61.116,0c-.721,0-1.467-.026-2.188-.026a5.007,5.007,0,0,1,2.6-.489c19.643,0,39.285-.026,58.954.051,3.012,0,5.947-.515,8.933-.541C1499.59,124.126,1499.693,124.177,1499.77,124.2Z" transform="translate(-1324.652 -118.583)"/><path class="g" d="M1712.1,124.386c-.026-.129-.077-.257-.1-.386C1712.36,124.051,1712.232,124.206,1712.1,124.386Z" transform="translate(-1534.797 -118.509)"/></g></svg>