<svg xmlns="http://www.w3.org/2000/svg" viewBox="5093.242 3403.8 6.758 10.7">
  <defs>
    <style>
      .cls-1 {
        fill: #fff;
      }
    </style>
  </defs>
  <g id="facebook-placeholder-for-locate-places-on-maps" transform="translate(5026.337 3403.8)">
    <path id="Facebook_Places" class="cls-1" d="M73.5,2.663a3.515,3.515,0,0,0-.158-.428A3.293,3.293,0,0,0,70.238,0,3.418,3.418,0,0,0,66.9,3.319v.457c0,.019.006.19.015.276a10.383,10.383,0,0,0,1.468,3.262c.619,1.141,1.262,2.264,1.9,3.386.392-.732.783-1.474,1.167-2.188.1-.209.226-.419.33-.618.07-.133.2-.266.264-.39.619-1.236,1.616-2.482,1.616-3.709v-.5A4.067,4.067,0,0,0,73.5,2.663ZM70.265,4.955a1.207,1.207,0,0,1-1.148-.894,1.349,1.349,0,0,1-.032-.333V3.433A1.177,1.177,0,0,1,70.3,2.216a1.3,1.3,0,0,1,1.237,1.37A1.326,1.326,0,0,1,70.265,4.955Z"/>
  </g>
</svg>
