<svg xmlns="http://www.w3.org/2000/svg" viewBox="4253 1188 136 135.612">
  <defs>
    <style>
      .cls-1 {
        fill: #fff;
      }
    </style>
  </defs>
  <g id="icons8-ruby-programming-language" transform="translate(4251.006 1186.006)">
    <path id="Path_17" data-name="Path 17" class="cls-1" d="M77.2,2.011a2.951,2.951,0,0,0-1.385.647L48.656,12.633a2.915,2.915,0,0,0-1.016.554L20.854,38.218a2.694,2.694,0,0,0-.554.647L2.75,68.976a3.736,3.736,0,0,0-.277.462l-.092.185-.092.093V69.9a1.359,1.359,0,0,0-.092.185l-.092.092v.093a1.36,1.36,0,0,0-.092.185V71.1a2.226,2.226,0,0,0,0,.554v36.576a1.973,1.973,0,0,0,0,.369v.093a2.871,2.871,0,0,0,.092.831C2.7,122.4,7.957,129.936,14.3,133.631c6.027,3.521,12.492,3.856,16.533,3.972.312.012.739-.012,1.016,0h.277a2.979,2.979,0,0,0,.462-.092h.092l94.674-6.465a3.029,3.029,0,0,0,.646,0,3.173,3.173,0,0,0,.924-.277,3.566,3.566,0,0,0,.554-.369h.092a2.974,2.974,0,0,0,1.108-2.956l7.02-92.364c.012-.058-.012-.127,0-.185l.277-3.51a3.017,3.017,0,0,0-.092-1.2,35.672,35.672,0,0,0-1.016-8.867c-2.274-8.844-9.121-16.476-21.89-18.75a3.088,3.088,0,0,0-.554-.092h-.185L78.12,2.011a3.025,3.025,0,0,0-.646,0Zm10.437,6,15.425.185-8.5,4.711Zm-9.975.277,13.485,9.514L81.537,48.378l-36.3,33.805-29.649,6.65-7.3-17.549,16.9-29.095,26.047-24.2Zm36.946.277c10.414,2.067,14.755,7.343,16.533,14.224,1.489,5.784.6,12.712-1.016,19.119L99.548,16.882ZM96.131,21.685l27.894,22.907-35.837,2.4Zm31.4,28.541C121.358,66.92,110.6,81.11,98.348,94.468L87.818,52.812ZM82.461,55.583,92.713,96.5,52.442,83.477Zm47.291,5.265-4.618,60.961-23.923-21.336C112.364,88.534,122.674,75.707,129.752,60.848ZM7.923,85.971,10.6,92.159l-2.679,4.9ZM48.84,88.557l42.026,13.485c-15.667,14.1-32.939,25.227-54.68,28.54Zm-6.281.277-11.176,37.13L17.9,94.376ZM13.465,99.087l13.762,32.235a24.28,24.28,0,0,1-9.976-2.863c-4.745-2.771-8.752-7.874-9.236-19.4Zm83.405,5.542,23.738,21.059-59.483,3.972C74.541,123.517,86.144,114.5,96.87,104.628Z" transform="translate(0 0)"/>
  </g>
</svg>
