<svg xmlns="http://www.w3.org/2000/svg" viewBox="5382 1577.808 419 417.803">
  <defs>
    <style>
      .cls-1 {
        fill: #555;
        opacity: 0.05;
      }
    </style>
  </defs>
  <path id="Path_17" data-name="Path 17" class="cls-1" d="M233.683,2.047a9.092,9.092,0,0,0-4.268,1.992L145.753,34.772a8.979,8.979,0,0,0-3.131,1.707L60.1,113.6a8.3,8.3,0,0,0-1.707,1.992L4.324,208.357a11.509,11.509,0,0,0-.854,1.422l-.285.569-.285.285v.569a4.187,4.187,0,0,0-.285.569l-.285.284v.285a4.191,4.191,0,0,0-.285.569V214.9a6.858,6.858,0,0,0,0,1.707V329.3a6.078,6.078,0,0,0,0,1.138v.285a8.846,8.846,0,0,0,.285,2.561c1.85,39.661,18.034,62.889,37.562,74.272,18.568,10.849,38.487,11.88,50.937,12.236.961.035,2.277-.035,3.131,0h.853a9.177,9.177,0,0,0,1.423-.284h.284L388.2,399.584a9.331,9.331,0,0,0,1.992,0,9.776,9.776,0,0,0,2.846-.854,10.986,10.986,0,0,0,1.707-1.138h.285a9.162,9.162,0,0,0,3.415-9.106l21.627-284.564c.035-.178-.036-.392,0-.569l.853-10.813a9.3,9.3,0,0,0-.284-3.7,109.9,109.9,0,0,0-3.131-27.319C410.5,34.274,389.41,10.762,350.07,3.755a9.514,9.514,0,0,0-1.707-.285h-.569L236.528,2.047a9.321,9.321,0,0,0-1.991,0Zm32.156,18.5,47.522.569-26.18,14.513Zm-30.733.854,41.546,29.31L247.057,144.9,135.223,249.049,43.878,269.538,21.4,215.47l52.075-89.637L153.72,51.277Zm113.826.854c32.084,6.367,45.458,22.623,50.936,43.823,4.589,17.821,1.849,39.163-3.13,58.9L302.547,47.862ZM292.019,62.66l85.938,70.572-110.411,7.4Zm96.752,87.93c-19.031,51.435-52.182,95.151-89.922,136.307l-32.44-128.339ZM249.9,167.095l31.586,126.062-124.07-40.124Zm145.7,16.221L381.372,371.127l-73.7-65.735C342.03,268.612,373.795,229.094,395.6,183.315Zm-375.34,77.4,8.252,19.065L20.26,294.864Zm126.062,7.968L275.8,310.231c-48.269,43.431-101.482,77.721-168.462,87.93Zm-19.35.853L92.539,383.932,50.992,286.611ZM37.333,301.125l42.4,99.312c-10.031-1-20.916-3.094-30.733-8.821-14.619-8.537-26.962-24.259-28.456-59.758ZM294.3,318.2l73.133,64.881L184.168,395.315C225.5,376.392,261.249,348.611,294.3,318.2Z" transform="translate(5380.006 1575.814)"/>
</svg>
