<?xml version="1.0" encoding="utf-8"?><!DOCTYPE svg PUBLIC "-//W3C//DTD SVG 1.1//EN" "http://www.w3.org/Graphics/SVG/1.1/DTD/svg11.dtd"><svg xmlns="http://www.w3.org/2000/svg" xmlns:xlink="http://www.w3.org/1999/xlink"><symbol viewBox="0 0 32 32" id="Agenda"><path d="M13 10H8V2h5v8zm-3-2h1V4h-1v4zM24 10h-5V2h5v8zm-3-2h1V4h-1v4z"/><path d="M32 30H0V5h6v2H2v21h28V7h-4V5h6z"/><path d="M15 5h2v2h-2V5zM8 18h16v2H8v-2zM8 22h16v2H8v-2zM1 12h30v2H1v-2z"/></symbol><symbol viewBox="0 0 32 32" id="Anchor"><path d="M16 27C8.28 27 2 21.617 2 15v-1h4v2H4.06c.604 5.046 5.729 9 11.94 9s11.336-3.954 11.94-9H26v-2h4v1c0 6.617-6.28 12-14 12zM16 10c-2.757 0-5-2.243-5-5s2.243-5 5-5 5 2.243 5 5-2.243 5-5 5zm0-8c-1.654 0-3 1.346-3 3s1.346 3 3 3 3-1.346 3-3-1.346-3-3-3z"/><path d="M15 9h2v14h-2V9zM16 32c-1.654 0-3-1.346-3-3h2a1 1 0 0 0 2 0h2c0 1.654-1.346 3-3 3z"/></symbol><symbol viewBox="0 0 32 32" id="Antenna1"><path d="M10.999 31.999a10.93 10.93 0 0 1-7.778-3.22c-4.289-4.289-4.289-11.268 0-15.557l3.535-3.535 15.557 15.555-3.535 3.537a10.934 10.934 0 0 1-7.779 3.22zM6.756 12.516l-2.121 2.121c-3.509 3.51-3.509 9.219 0 12.729A8.944 8.944 0 0 0 10.999 30a8.946 8.946 0 0 0 6.365-2.634l2.121-2.123L6.756 12.516z"/><path d="M6.049 25.951c-2.729-2.729-2.729-7.171 0-9.9l1.414 1.414a5.008 5.008 0 0 0 0 7.072l-1.414 1.414zM17.829 18.828l-1.415-1.414c.378-.378.586-.88.586-1.415 0-.534-.208-1.036-.585-1.413-.756-.756-2.073-.756-2.828 0l-1.415-1.414c1.511-1.512 4.146-1.512 5.657 0 .754.754 1.171 1.759 1.171 2.827s-.417 2.073-1.171 2.829zM23.96 16.348c-.001-4.963-4.038-9-9-9v-2c6.064 0 10.999 4.935 11 11h-2z"/><path d="M30 15.951C29.997 8.261 23.738 2.002 16.049 2V0C24.84.002 31.996 7.157 32 15.951h-2z"/></symbol><symbol viewBox="0 0 32 32" id="Antenna2"><path d="M16 15.875c-2.206 0-4-1.794-4-4s1.794-4 4-4 4 1.794 4 4-1.794 4-4 4zm0-6c-1.103 0-2 .897-2 2s.897 2 2 2 2-.897 2-2-.897-2-2-2zM9.223 20.215c-4.289-4.289-4.289-11.268 0-15.557l1.414 1.414c-3.509 3.51-3.509 9.219 0 12.729l-1.414 1.414z"/><path d="M4.669 23.227c-6.215-6.22-6.215-16.339 0-22.559l1.415 1.414c-5.437 5.439-5.437 14.291 0 19.73l-1.415 1.415zM22.779 19.725l-1.414-1.414c3.508-3.509 3.508-9.219 0-12.729l1.415-1.414c4.287 4.29 4.287 11.269-.001 15.557z"/><path d="M27.331 23.715l-1.415-1.414c5.437-5.44 5.437-14.29 0-19.729l1.414-1.414c6.216 6.218 6.216 16.337.001 22.557zM20 23.65h-2v-2.025c0-1.103-.897-2-2-2s-2 .897-2 2v2.025h-2v-2.025c0-2.206 1.794-4 4-4s4 1.794 4 4v2.025zM20 31.625h-8V25.6h8v6.025zm-6-2h4V27.6h-4v2.025z"/></symbol><symbol viewBox="0 0 32 32" id="Arrow"><path d="M18.625 11.219l5 4-1.249 1.562-5-4 1.249-1.562zM15 21H0V11h15v2H2v6h13z"/><path d="M13 31.101V23h2v3.899L28.414 16 15 5.101V9h-2V.899L31.586 16z"/></symbol><symbol viewBox="0 0 32 32" id="Astronaut"><path d="M19.787 8h-6.549L11.01 6.746l.98-1.742L13.762 6h5.451l1.757-1.098 1.06 1.696zM25.819 23.5H7.256L3.788 11.94l.81-.356C7.661 10.239 11.71 9.499 16 9.499s8.34.74 11.402 2.085l.736.323L25.819 23.5zm-17.075-2h15.437l1.677-8.389c-2.718-1.043-6.181-1.612-9.857-1.612-3.643 0-7.075.559-9.781 1.583L8.744 21.5z"/><path d="M10.019 18.787l-1.326-4.422 1.057-.229c3.973-.86 8.969-.827 12.861.082l-.455 1.947c-3.269-.763-7.424-.869-10.918-.278l.698 2.326-1.917.574zM11 25.5h10v2H11v-2zM0 11h2v10H0V11z"/><path d="M16 32a15.983 15.983 0 0 1-14.153-8.532l1.768-.936A13.984 13.984 0 0 0 16 30c5.201 0 9.947-2.861 12.386-7.468l1.768.936A15.987 15.987 0 0 1 16 32zM30 11h2v10h-2V11zM28.386 9.468A13.988 13.988 0 0 0 16 2 13.987 13.987 0 0 0 3.614 9.468l-1.767-.936C4.632 3.27 10.056 0 16 0s11.367 3.27 14.153 8.532l-1.767.936z"/></symbol><symbol viewBox="0 0 32 32" id="Bag"><path d="M5 17.004h2v9H5v-9zM7 17.004H5C5 12.28 8.047 8.11 12.421 6.602L8.164-.004H17v2h-5.168l3.801 5.896-1.433.293c-4.172.85-7.2 4.559-7.2 8.819z"/><path d="M21 32.004H11c-3.309 0-6-2.691-6-6h2c0 2.206 1.794 4 4 4h10c2.206 0 4-1.794 4-4h2c0 3.309-2.691 6-6 6z"/><path d="M25 17.004h2v9h-2v-9zM27 17.004h-2c0-4.26-3.028-7.969-7.2-8.819l-1.433-.292L21.161.455l1.682 1.084-3.265 5.063C23.953 8.11 27 12.28 27 17.004zM16 23.988c-1.654 0-3-1.346-3-3h2a1 1 0 1 0 1-1c-1.654 0-3-1.346-3-3s1.346-3 3-3 3 1.346 3 3h-2a1 1 0 1 0-1 1c1.654 0 3 1.346 3 3s-1.346 3-3 3zM15 11.004h2v2.018h-2v-2.018zM15 25.004h2v2.016h-2v-2.016z"/></symbol><symbol viewBox="0 0 32 32" id="Bascketball"><path d="M16 32C7.178 32 0 24.822 0 16S7.178 0 16 0s16 7.178 16 16-7.178 16-16 16zm0-30C8.28 2 2 8.28 2 16s6.28 14 14 14 14-6.28 14-14S23.72 2 16 2z"/><path d="M17 28h-2c0-6.065-4.935-11-11-11v-2c7.168 0 13 5.832 13 13zM28 17c-7.168 0-13-5.832-13-13h2c0 6.065 4.935 11 11 11v2zM9.207 7.793l15 15-1.414 1.414-15-15 1.414-1.414z"/><path d="M22.793 7.793l1.414 1.414-15 15-1.414-1.414 15-15z"/></symbol><symbol viewBox="0 0 32 32" id="BatteryFull"><path d="M28 20v-2c1.103 0 2-.897 2-2s-.897-2-2-2v-2c2.206 0 4 1.794 4 4s-1.794 4-4 4zM26 25H8v-2h16V9H8V7h18z"/><path d="M14.987 10.808l1.963.384-1.971 10.078-1.963-.384 1.971-10.078zM9.988 10.808l1.963.384L9.98 21.27l-1.963-.384 1.971-10.078zM19.987 10.809l1.963.384-1.971 10.078-1.963-.384 1.971-10.078zM6 25H0V7h6v18zm-4-2h2V9H2v14z"/></symbol><symbol viewBox="0 0 32 32" id="BatteryLow"><path d="M9 4h2v19H9V4zM17 4l.014 13.006-2 .002L15 4.002 17 4zM17 4h-2c0-1.103-.897-2-2-2s-2 .897-2 2H9c0-2.206 1.794-4 4-4s4 1.794 4 4z"/><path d="M25.898 32H8.5L4 26v-7.414l2.293-2.293 1.414 1.414L6 19.414v5.919L9.5 30h14.66l1.741-12.369-10.287-4.202.757-1.852 11.728 4.792z"/></symbol><symbol viewBox="0 0 32 32" id="Bicycle"><path d="M5.949 27.998A5.973 5.973 0 0 1 2.41 26.84a5.956 5.956 0 0 1-2.383-3.925 5.955 5.955 0 0 1 1.089-4.46 5.96 5.96 0 0 1 3.926-2.385l.305 1.977a3.976 3.976 0 0 0-2.617 1.59c-.631.861-.889 1.918-.726 2.974s.727 1.985 1.588 2.616a4.006 4.006 0 0 0 5.591-.861l1.613 1.182a6 6 0 0 1-4.847 2.45zM26.037 28.002c-.897 0-1.79-.203-2.62-.607a5.96 5.96 0 0 1-3.046-3.437 5.956 5.956 0 0 1 .277-4.583l1.798.875a3.975 3.975 0 0 0-.185 3.056 3.969 3.969 0 0 0 2.032 2.29 3.98 3.98 0 0 0 3.056.185 3.977 3.977 0 0 0 2.291-2.032c.468-.961.533-2.045.184-3.055s-1.071-1.823-2.033-2.291l.875-1.799a5.968 5.968 0 0 1 3.048 3.436 5.953 5.953 0 0 1-.276 4.584 5.957 5.957 0 0 1-3.436 3.047 6.041 6.041 0 0 1-1.965.331z"/><path d="M24.006 10.736l3 11.001-1.93.526-3-11.001 1.93-.526zM26.8 5.029l.485 1.939-4 1.001L22.8 6.03l4-1.001zM14.877 9.013l.329 1.973-6 1.001-.329-1.973 6-1.001z"/><path d="M15.551 22.999H4.043l-.002-2.5 8.629-6.429 10.001-4 .38.951.799.582-8.299 11.396zm-8.843-2h7.826l5.672-7.788-6.67 2.667-6.828 5.121z"/><path d="M22.042 8.999h2v3h-2v-3z"/></symbol><symbol viewBox="0 0 32 32" id="BigTruck"><path d="M6.95 5.689l1.969 6.001-1.9.624-1.969-6 1.9-.624zM12.981 5.689l1.969 6-1.9.624-1.969-6 1.9-.624zM8 30c-3.309 0-6-2.691-6-6s2.691-6 6-6 6 2.691 6 6-2.691 6-6 6zm0-10c-2.206 0-4 1.794-4 4s1.794 4 4 4 4-1.794 4-4-1.794-4-4-4zM26 30c-3.309 0-6-2.691-6-6s2.691-6 6-6 6 2.691 6 6-2.691 6-6 6zm0-10c-2.206 0-4 1.794-4 4s1.794 4 4 4 4-1.794 4-4-1.794-4-4-4z"/><path d="M20 18.181L0 14.847V2h32v2H2v9.153l16 2.666V6h2z"/><path d="M32 18h-2v-4.838L28.279 8H24v6h4v2h-6V6h7.721L32 12.838z"/></symbol><symbol viewBox="0 0 32 32" id="Blog"><path d="M1 3h30v2H1V3zM1 27h30v2H1v-2zM4 6h2v2H4V6zM7 6h2v2H7V6zM10 6h2v2h-2V6zM12 24H4V14h8v10zm-6-2h4v-6H6v6zM14 14h7v2h-7v-2z"/><path d="M32 11H0V3h32v8zM2 9h28V5H2v4zM32 29H0V14.005h2V27h28V13.023h2z"/><path d="M14 18h14v2H14v-2zM14 22h14v2H14v-2z"/></symbol><symbol viewBox="0 0 32 32" id="Bomb"><path d="M16 32c-5.514 0-10-4.486-10-10s4.486-10 10-10 10 4.486 10 10-4.486 10-10 10zm0-18c-4.411 0-8 3.589-8 8s3.589 8 8 8 8-3.589 8-8-3.589-8-8-8z"/><path d="M12 22h-2c0-3.309 2.691-6 6-6v2c-2.206 0-4 1.794-4 4zM19 10h-2V8h-2v2h-2V6h6z"/><path d="M15 3h2v4h-2V3zM17 3h-2c0-1.654 1.346-3 3-3v2a1 1 0 0 0-1 1z"/></symbol><symbol viewBox="0 0 32 32" id="Book"><path d="M14.999 5h2v20h-2V5zM16.999 32h-2c0-1.654-1.346-3-3-3h-11v-2h11c2.757 0 5 2.243 5 5z"/><path d="M16.999 32h-2c0-2.757 2.243-5 5-5h11v2h-11c-1.654 0-3 1.346-3 3zM13.028 25H.999V0h11c2.757 0 5 2.243 5 5h-2c0-1.654-1.346-3-3-3h-9v21h10.029v2z"/><path d="M30.999 25H18.972v-2h10.027V2h-9c-1.654 0-3 1.346-3 3h-2c0-2.757 2.243-5 5-5h11v25z"/></symbol><symbol viewBox="0 0 32 32" id="BottleofWIne"><path d="M19 10h-6V4h2v4h2V4h2zM13 0h6v2h-6V0z"/><path d="M22 32H10V14c0-3.309 2.691-6 6-6s6 2.691 6 6v18zm-10-2h8V14c0-2.206-1.794-4-4-4s-4 1.794-4 4v16z"/><path d="M16 27h-2V14c0-1.076.859-1.887 2-1.887V27z"/></symbol><symbol viewBox="0 0 32 32" id="Bourbon"><path d="M19 10h-6V4h2v4h2V4h2zM11 0h10v2H11V0zM25 32H7V17h2v13h14V17h2z"/><path d="M25 17h-2c0-3.86-3.14-7-7-7s-7 3.14-7 7H7c0-4.962 4.038-9 9-9s9 4.038 9 9z"/><path d="M13 28h-2V17c0-2.738 2.243-4.966 5-4.966v2c-1.654 0-3 1.331-3 2.966v11z"/></symbol><symbol viewBox="0 0 32 32" id="Bread"><path d="M24 15h-4v-2h2v-1c0-5.514-4.486-10-10-10S2 6.486 2 12v1h2v2H0v-3C0 5.383 5.383 0 12 0s12 5.383 12 12v3zM22 32H2V17h2v13h16V17h2zM32 15h-4v-2h2v-1c0-5.514-4.486-10-10-10V0c6.617 0 12 5.383 12 12v3zM30 32h-6v-2h4V17h2z"/></symbol><symbol viewBox="0 0 32 32" id="Briefcase"><path d="M32 31H0V18h32v13zM2 29h28v-9H2v9z"/><path d="M16 23c-1.654 0-3-1.346-3-3h2a1.001 1.001 0 0 0 2 0h2c0 1.654-1.346 3-3 3zM23.004 8H19V6c0-1.654-1.346-3-3-3s-3 1.346-3 3v2H9.01V6H11c0-2.757 2.243-5 5-5s5 2.243 5 5h2.004v2zM32 16h-2v-4H2v4H0v-6h32z"/></symbol><symbol viewBox="0 0 32 32" id="Bulb"><path d="M20.91 21.458l-1.785-.902 2.532-4.898c3.119-3.119 3.119-8.194 0-11.313s-8.195-3.119-11.314 0-3.119 8.194 0 11.313l.114.114 2.405 4.787-1.787.898-2.263-4.502C5.03 13.046 5.069 6.79 8.929 2.93c3.899-3.899 10.244-3.899 14.143 0 3.86 3.86 3.898 10.117.115 14.025l-2.277 4.503zM19.879 22.008l.24 1.986-8 .968-.24-1.986 8-.968zM19.879 25.008l.24 1.986-8 .968-.24-1.986 8-.968zM15.977 32c-1.654 0-3-1.346-3-3h2c0 .551.449 1 1 1s1-.449 1-1h2c0 1.654-1.346 3-3 3z"/><path d="M12 10h-2c0-3.309 2.691-6 6-6v2c-2.206 0-4 1.794-4 4z"/></symbol><symbol viewBox="0 0 32 32" id="CD"><path d="M16 32C7.178 32 0 24.822 0 16S7.178 0 16 0s16 7.178 16 16-7.178 16-16 16zm0-30C8.28 2 2 8.28 2 16s6.28 14 14 14 14-6.28 14-14S23.72 2 16 2z"/><path d="M16 20c-2.206 0-4-1.794-4-4s1.794-4 4-4 4 1.794 4 4-1.794 4-4 4zm0-6c-1.103 0-2 .897-2 2s.897 2 2 2 2-.897 2-2-.897-2-2-2z"/><path d="M15 4h2v10h-2V4zM15 18h2v10h-2V18z"/><path d="M23.779 6.808l1.414 1.414-7.071 7.071-1.414-1.414 7.071-7.071zM13.878 16.707l1.414 1.414-7.071 7.071-1.414-1.414 7.071-7.071z"/></symbol><symbol viewBox="0 0 32 32" id="Calculator"><path d="M32 32H0V0h32v32zM2 30h28V2H2v28z"/><path d="M9 6h2v8H9V6z"/><path d="M6 9h8v2H6V9zM18 9h8v2h-8V9zM18 19h2v2h-2v-2zM23 23h2v2h-2v-2zM12.293 18.292l1.414 1.414-6 6-1.414-1.414 6-6zM24.293 18.292l1.414 1.414-6 6-1.414-1.414 6-6z"/><path d="M7.707 18.292l6 6-1.414 1.414-6-6 1.414-1.414z"/></symbol><symbol viewBox="0 0 32 32" id="Car"><path d="M32 22H0v-2h30v-2.434l-4.515-2.709 1.03-1.714L32 16.434z"/><path d="M1.975 18.225l-1.95-.45L3.205 4h17.597l2.445 11H5v-2h15.753l-1.555-7H4.795zM24 28c-2.206 0-4-1.794-4-4h2c0 1.103.897 2 2 2s2-.897 2-2h2c0 2.206-1.794 4-4 4zM7 28c-2.206 0-4-1.794-4-4h2c0 1.103.897 2 2 2s2-.897 2-2h2c0 2.206-1.794 4-4 4z"/></symbol><symbol viewBox="0 0 32 32" id="Carioca"><path d="M14.645 28.013L4.008 17.057 25.53.218l6.258 6.257-17.143 21.538zM6.993 17.26l7.503 7.728L29.11 6.627l-3.742-3.743L6.993 17.26z"/><path d="M24.371 6.206l1.233 1.576-13.518 10.57-1.233-1.576 13.518-10.57zM4.378 30.449L1.55 27.621l.708-.707a3.004 3.004 0 0 0 0-4.242l-.706-.707 2.137-2.139 1.415 1.414-.795.796a5.012 5.012 0 0 1 0 5.514l.142.143a5.015 5.015 0 0 1 5.516 0l.794-.794 1.414 1.414-2.138 2.137-.707-.707a3.003 3.003 0 0 0-4.243 0l-.709.706z"/><path d="M2.964 27.621l1.414 1.414-2.121 2.121-1.414-1.414 2.121-2.121z"/></symbol><symbol viewBox="0 0 32 32" id="Cassette"><path d="M32 23h-2V7H2v16H0V5h32z"/><path d="M32 27h-6.5l-3-4h-13l-3 4H0v-2h5.5l3-4h15l3 4H32z"/><path d="M10 25h12v2H10v-2zM21 19l-.091-.004-11-1h-.007C7.79 17.996 6 16.203 6 14c0-2.206 1.794-4 4-4l10.909-.996h.008C23.762 9.004 26 11.245 26 14c0 2.757-2.243 5-5 5zm0-8l-10.91.996C8.897 12 8 12.897 8 14s.897 2 2 2l11.042 1A3.003 3.003 0 0 0 24 14c0-1.654-1.346-3-3-3z"/><path d="M10 13h2v2h-2v-2zM20 13h2v2h-2v-2z"/></symbol><symbol viewBox="0 0 32 32" id="Chart"><path d="M0 30h32v2H0v-2z"/><path d="M0 0h2v32H0V0zM7 28h2v2H7v-2zM11 28h2v2h-2v-2zM15 28h2v2h-2v-2zM19 28h2v2h-2v-2zM23 28h2v2h-2v-2zM27 28h2v2h-2v-2zM2.001 24h2v2h-2v-2zM2.001 20h2v2h-2v-2zM2.001 16h2v2h-2v-2zM2.001 12h2v2h-2v-2zM2.001 8h2v2h-2V8zM2.001 4h2v2h-2V4zM13 26H7V12h6v14zm-4-2h2V14H9v10zM21 26h-6V4h6v22zm-4-2h2V6h-2v18zM29 26h-6V8h6v18zm-4-2h2V10h-2v14z"/></symbol><symbol viewBox="0 0 32 32" id="Chart2"><path d="M14 32C6.28 32 0 25.72 0 18S6.28 4 14 4v2C7.383 6 2 11.383 2 18s5.383 12 12 12 12-5.383 12-12h2c0 7.72-6.28 14-14 14z"/><path d="M32 16H16V0h1c7.71 0 15 7.289 15 15v1zm-14-2h11.953C29.397 8.033 23.967 2.603 18 2.047V14z"/></symbol><symbol viewBox="0 0 32 32" id="ChartDown"><path d="M0 30h32v2H0v-2z"/><path d="M0 0h2v32H0V0zM7 28h2v2H7v-2zM11 28h2v2h-2v-2zM15 28h2v2h-2v-2zM19 28h2v2h-2v-2zM23 28h2v2h-2v-2zM27 28h2v2h-2v-2zM2.001 24h2v2h-2v-2zM2.001 20h2v2h-2v-2zM2.001 16h2v2h-2v-2zM2.001 12h2v2h-2v-2zM2.001 8h2v2h-2V8zM2.001 4h2v2h-2V4zM27.257 21.669l-8.363-9.299-5.024 4.014-6.635-7.733 1.518-1.302 5.377 6.267 4.988-3.986 9.625 10.701z"/><path d="M29.006 22h-9v-2h7v-7h2z"/></symbol><symbol viewBox="0 0 32 32" id="ChartUp"><path d="M0 30h32v2H0v-2z"/><path d="M0 0h2v32H0V0zM7 28h2v2H7v-2zM11 28h2v2h-2v-2zM15 28h2v2h-2v-2zM19 28h2v2h-2v-2zM23 28h2v2h-2v-2zM27 28h2v2h-2v-2zM2.001 24h2v2h-2v-2zM2.001 20h2v2h-2v-2zM2.001 16h2v2h-2v-2zM2.001 12h2v2h-2v-2zM2.001 8h2v2h-2V8zM2.001 4h2v2h-2V4zM8.8 22.601l-1.6-1.202 6.624-8.824 5.112 4.085 8.361-8.367 1.415 1.414-9.627 9.633-4.899-3.915z"/><path d="M29.011 17h-2v-7h-7V8h9z"/></symbol><symbol viewBox="0 0 32 32" id="ChemicalGlass"><path d="M10.041 0h12v2h-12V0zM26.357 32H5.643l-.293-.293c-1.511-1.511-2.346-3.536-2.351-5.704-.004-2.172.825-4.199 2.335-5.71l6.707-6.707V4h2v10.414l-7.293 7.293c-1.131 1.132-1.752 2.655-1.749 4.291A6.052 6.052 0 0 0 6.489 30H25.51c2.054-2.355 1.97-6.064-.258-8.293l-7.293-7.293V4h2v9.586l6.707 6.707c3.143 3.144 3.135 8.264-.016 11.414l-.293.293z"/><path d="M7.215 27.319A4.133 4.133 0 0 1 7 25.995a4.01 4.01 0 0 1 1.165-2.874l7.003-7 1.414 1.414-7.003 7A2.03 2.03 0 0 0 9 25.99c.001.244.037.477.109.69l-1.894.639z"/></symbol><symbol viewBox="0 0 32 32" id="Click"><path d="M28 20v-2c1.103 0 2-.897 2-2s-.897-2-2-2v-2c2.206 0 4 1.794 4 4s-1.794 4-4 4zM26 25H8v-2h16V9H8V7h18zM6 25H0V7h6v18zm-4-2h2V9H2v14z"/></symbol><symbol viewBox="0 0 32 32" id="ClipboardChart"><path d="M28 32H4V4h4.016v2H6v24h20V6h-2.075V4H28z"/><path d="M21.965 8.012h-11.93V2h3.133c.413-1.164 1.525-2 2.829-2s2.416.836 2.829 2h3.139v6.012zm-9.93-2h7.93V4h-2.968V3a1.001 1.001 0 0 0-2 0v1h-2.962v2.012zM12.994 13h2v14h-2V13zM16.993 11h2v16h-2V11zM20.993 14h2v13h-2V14zM8.994 20h2v7h-2v-7z"/></symbol><symbol viewBox="0 0 32 32" id="ClipboardText"><path d="M28 32H4V4h4.016v2H6v24h20V6h-2.075V4H28z"/><path d="M21.965 8.012h-11.93V2h3.133c.413-1.164 1.525-2 2.829-2s2.416.836 2.829 2h3.139v6.012zm-9.93-2h7.93V4h-2.968V3c0-.551-.449-1-1-1s-1 .449-1 1v1h-2.962v2.012zM9.992 16h12v2h-12v-2zM9.992 20h12v2h-12v-2zM9.992 24h12v2h-12v-2zM9.992 12h5v2h-5v-2z"/></symbol><symbol viewBox="0 0 32 32" id="ClosedLock"><path d="M16 32C9.383 32 4 26.617 4 20v-6h24v6c0 6.617-5.384 12-12 12zM6 16v4c0 5.514 4.486 10 10 10s10-4.486 10-10v-4H6z"/><path d="M16 27a3.004 3.004 0 0 1-3-2.975V22c0-1.654 1.346-3 3-3s3 1.346 3 3v2.025A3.004 3.004 0 0 1 16 27zm0-6c-.551 0-1 .449-1 1v2c0 .551.449 1 1 1s1-.449 1-1v-2c0-.551-.449-1-1-1zM24 12h-2V7.686C22 4.551 19.308 2 16 2s-6 2.551-6 5.686V12H8V7.686C8 3.447 11.588 0 16 0s8 3.447 8 7.686V12z"/></symbol><symbol viewBox="0 0 32 32" id="Cloud"><path d="M15.996 16h-2c0-.144-.005-.287-.01-.43l-.015-.135.009-.096c.32-3.45 3.496-6.295 7.08-6.34l.025 2c-2.56.032-4.83 2.014-5.104 4.436.01.227.015.396.015.565z"/><path d="M20.996 27H8.005C3.593 27 .004 23.411.004 19s3.589-8 8-8v2c-3.309 0-6 2.691-6 6s2.692 6 6.001 6h12.991c4.962 0 9-4.037 9-9 0-4.938-3.997-8.959-8.925-9-4.677.039-8.66 3.607-9.083 8.155-.014.157-.006.317 0 .479.004.121.008.242.008.365h-2c0-.099-.004-.196-.007-.294a5.627 5.627 0 0 1 .008-.735c.515-5.543 5.332-9.895 11-9.97l.15.001C27.143 5.082 31.996 9.984 31.996 16c0 6.065-4.934 11-11 11z"/></symbol><symbol viewBox="0 0 32 32" id="CoffeeToGo"><path d="M24.956 32H7.044L6.001 9.045l1.998-.09L8.956 30h14.088l.957-21.045 1.998.09zM4 5h24v2H4V5z"/><path d="M24.22 7H7.78l1.4-7h13.64l1.4 7zm-14-2h11.56l-.6-3H10.82l-.6 3zM16 24c-2.206 0-4-1.794-4-4s1.794-4 4-4 4 1.794 4 4-1.794 4-4 4zm0-6c-1.103 0-2 .897-2 2s.897 2 2 2 2-.897 2-2-.897-2-2-2zM10 12h12v2H10v-2zM10 26h12v2H10v-2z"/></symbol><symbol viewBox="0 0 32 32" id="Column"><path d="M25 15c-3.859 0-7-3.14-7-7h2c0 2.757 2.243 5 5 5s5-2.243 5-5-2.243-5-5-5H7C4.243 3 2 5.243 2 8s2.243 5 5 5 5-2.243 5-5h2c0 3.86-3.141 7-7 7s-7-3.14-7-7 3.141-7 7-7h18c3.859 0 7 3.14 7 7s-3.141 7-7 7z"/><path d="M14 13h4v2h-4v-2zM6 17h2v14H6V17zM12 17h2v14h-2V17zM18 17h2v14h-2V17zM24 17h2v14h-2V17zM6.069 8h-2c0-1.654 1.346-3 3-3v2c-.551 0-1 .449-1 1zM24.069 8h-2c0-1.654 1.346-3 3-3v2c-.551 0-1 .449-1 1z"/></symbol><symbol viewBox="0 0 32 32" id="CompactCamera"><path d="M16 28C9.935 28 5 23.065 5 17S9.935 6 16 6s11 4.935 11 11-4.935 11-11 11zm0-20c-4.962 0-9 4.038-9 9s4.038 9 9 9 9-4.038 9-9-4.038-9-9-9z"/><path d="M11 17H9c0-3.86 3.14-7 7-7v2c-2.757 0-5 2.243-5 5zM6 28H0V8h6v2H2v16h4zM32 28h-6v-2h4V10h-4V8h6zM2 4h4v2H2V4z"/></symbol><symbol viewBox="0 0 32 32" id="Compass"><path d="M16 32C8.28 32 2 25.72 2 18 2 11.473 6.429 5.871 12.771 4.376l.459 1.946A11.946 11.946 0 0 0 4 18c0 6.617 5.383 12 12 12s12-5.383 12-12c0-5.595-3.795-10.396-9.229-11.677l.459-1.946C25.571 5.871 30 11.473 30 18c0 7.72-6.28 14-14 14z"/><path d="M15 0h2v6h-2V0z"/><path d="M13 0h6v2h-6V0zM9.404 24.577l2.655-7.89 1.896.638-1.375 4.085 4.096-1.366.633 1.898zM19.941 19.313l-1.896-.638 1.375-4.085-4.096 1.366-.633-1.898 7.905-2.635z"/></symbol><symbol viewBox="0 0 32 32" id="CompassTool"><path d="M15.974 16c-2.757 0-5-2.243-5-5s2.243-5 5-5 5 2.243 5 5-2.244 5-5 5zm0-8c-1.654 0-3 1.346-3 3s1.346 3 3 3 3-1.346 3-3-1.346-3-3-3zM16.251 25.135c-1.931 0-3.885-.507-5.656-1.574l1.031-1.713c4.251 2.558 9.794 1.185 12.354-3.066l1.713 1.031c-2.062 3.424-5.709 5.322-9.442 5.322zM14.974 0h2v4h-2V0z"/><path d="M12.011 16.721l1.92.557-4.06 14.001-1.92-.557 4.06-14.001zM19.87 16.723l4.063 14.001-1.92.557L17.95 17.28l1.92-.557z"/></symbol><symbol viewBox="0 0 32 32" id="Controller"><path d="M23.031 28H8.979C4.028 28 0 23.963 0 19s4.023-9 8.969-9H24.02c4.177 0 7.98 4.29 7.98 9 0 4.963-4.023 9-8.969 9zM8.969 12C5.126 12 2 15.141 2 19s3.131 7 6.979 7h14.052C26.874 26 30 22.859 30 19c0-3.942-3.215-7-5.98-7H8.969z"/><path d="M8 15h2v8H8v-8z"/><path d="M5 18h8v2H5v-2zM17 8h-2V6c0-1.654 1.346-3 3-3v2a1 1 0 0 0-1 1v2zM20.414 18.794a1.003 1.003 0 0 0-1.415-.001l-1.414-1.414a3.005 3.005 0 0 1 4.243-.001l-1.414 1.416z"/><path d="M17.587 21.623a2.982 2.982 0 0 1-.879-2.121c0-.802.312-1.555.879-2.122l1.414 1.416c-.189.188-.293.439-.293.706s.104.518.293.707l-1.414 1.414zM26.414 18.794a1.003 1.003 0 0 0-1.415-.001l-1.414-1.414a3.005 3.005 0 0 1 4.243-.001l-1.414 1.416z"/><path d="M23.587 21.623a2.982 2.982 0 0 1-.879-2.121 2.976 2.976 0 0 1 .879-2.122l1.414 1.416c-.189.188-.293.439-.293.706s.104.518.293.707l-1.414 1.414z"/></symbol><symbol viewBox="0 0 32 32" id="Corkscrew"><path d="M26 8H6C3.794 8 2 6.206 2 4s1.794-4 4-4h20c2.206 0 4 1.794 4 4s-1.794 4-4 4zM6 2c-1.103 0-2 .897-2 2s.897 2 2 2h20c1.103 0 2-.897 2-2s-.897-2-2-2H6zM17 32.004l-2-.008.018-4.569-2.467-2.41 4.078-3.996-4.024-3.978L15 14.593V10h2v5.407l-1.574 1.612 4.054 4.007-4.07 3.989 1.611 1.573z"/></symbol><symbol viewBox="0 0 32 32" id="Crown"><path d="M0 27h32v2H0v-2zM24.144 19.474L16.008 5.952 8.026 19.447l-1.72-1.019 9.686-16.38 9.864 16.394z"/><path d="M32 25H0V5.043l8.502 6.146-1.172 1.622L2 8.957V23h28V8.957l-5.33 3.854-1.172-1.622L32 5.043z"/></symbol><symbol viewBox="0 0 32 32" id="Cup"><path d="M16 19c-4.962 0-9-4.038-9-9V0h18v10c0 4.962-4.038 9-9 9zM9 2v8c0 3.86 3.14 7 7 7s7-3.14 7-7V2H9z"/><path d="M16 15c-2.757 0-5-2.243-5-5V5h2v5c0 1.654 1.346 3 3 3v2zM15 23.5h2V31h-2v-7.5z"/><path d="M7 30h18v2H7v-2zM27 10V8c1.654 0 3-1.346 3-3V4h-3V2h5v3c0 2.757-2.243 5-5 5zM5 10c-2.757 0-5-2.243-5-5V2h5v2H2v1c0 1.654 1.346 3 3 3v2zM16 25c-2.206 0-4-1.794-4-4h2c0 1.103.897 2 2 2s2-.897 2-2h2c0 2.206-1.794 4-4 4z"/></symbol><symbol viewBox="0 0 32 32" id="DSLRCamera"><path d="M32 29h-8v-2h6V10h-6.566l-3-5h-8.868l-3 5H2v17h6v2H0V8h7.434l3-5h11.132l3 5H32z"/><path d="M16 29c-4.962 0-9-4.038-9-9s4.038-9 9-9 9 4.038 9 9-4.038 9-9 9zm0-16c-3.86 0-7 3.14-7 7s3.14 7 7 7 7-3.14 7-7-3.14-7-7-7zM26 12h2v2h-2v-2z"/><path d="M13 20h-2c0-2.757 2.243-5 5-5v2c-1.654 0-3 1.346-3 3z"/></symbol><symbol viewBox="0 0 32 32" id="Delete"><path d="M26 32H6V9h2v21h16V9h2zM4 5h24v2H4V5z"/><path d="M21 7H11V0h10v7zm-8-2h6V2h-6v3zM12 12h2v14h-2V12zM18 12h2v14h-2V12z"/></symbol><symbol viewBox="0 0 32 32" id="DesktopMonitor"><path d="M32 25H18.984v-2H30V5H2v18h11.076v2H0V3h32z"/><path d="M28 21H4V7h24v14zM6 19h20V9H6v10zM15 22.926h2V25h-2v-2.074zM9.963 27h12.074v2H9.963v-2z"/></symbol><symbol viewBox="0 0 32 32" id="DiamondRing"><path d="M16 31.995a12.956 12.956 0 0 1-9.192-3.802c-5.069-5.069-5.069-13.316 0-18.385l1.414 1.414c-4.289 4.289-4.289 11.268 0 15.557s11.268 4.29 15.557 0c4.287-4.29 4.288-11.269 0-15.557l1.414-1.414c5.067 5.068 5.067 13.316 0 18.385A12.956 12.956 0 0 1 16 31.995z"/><path d="M15.998 14.331L6.804 6.25l1.295-2.684 1.801.869-.634 1.316 6.735 5.919 6.759-5.913-.655-1.309 1.79-.895 1.345 2.691zM9 0h14v2H9V0z"/><path d="M13 4h6v2h-6V4z"/></symbol><symbol viewBox="0 0 32 32" id="Dislike"><path d="M17 32c-2.206 0-4-1.794-4-4v-3.649L9.52 20H8v-2h2.48L15 23.649V28c0 1.103.897 2 2 2s2-.897 2-2h2c0 2.206-1.794 4-4 4z"/><path d="M21 28h-2v-9.836l.822-.179 9.95-1.795L26.248 2H17.14L10 4H8V2h1.86L17 0h10.812l4.416 17.779L21 19.805zM6 20H0V2h6v18zm-4-2h2V4H2v14z"/></symbol><symbol viewBox="0 0 32 32" id="Dollar"><path d="M32 26H0V6h32v20zM2 24h28V8H2v16z"/><path d="M16 22c-3.309 0-6-2.691-6-6s2.691-6 6-6 6 2.691 6 6-2.691 6-6 6zm0-10c-2.206 0-4 1.794-4 4s1.794 4 4 4 4-1.794 4-4-1.794-4-4-4zM4 10h4v2H4v-2zM24 10h4v2h-4v-2zM24 20h4v2h-4v-2zM4 20h4v2H4v-2z"/></symbol><symbol viewBox="0 0 32 32" id="Dollars"><path d="M26 22H0V6h26v16zM2 20h22V8H2v12z"/><path d="M32 28H6v-4.027h2V26h22V14h-2.013v-2H32zM13 18c-2.206 0-4-1.794-4-4s1.794-4 4-4 4 1.794 4 4-1.794 4-4 4zm0-6c-1.103 0-2 .897-2 2s.897 2 2 2 2-.897 2-2-.897-2-2-2zM4 10h2v2H4v-2zM4 16h2v2H4v-2zM20 10h2v2h-2v-2z"/><path d="M20 16h2v2h-2v-2z"/></symbol><symbol viewBox="0 0 32 32" id="Download"><path d="M30 32H2v-8h2v6h24v-6h2z"/><path d="M16 24.803L6.131 10H12V0h2v12H9.869L16 21.197 22.132 12H18V0h2v10h5.868z"/></symbol><symbol viewBox="0 0 32 32" id="DownloadCloud"><path d="M20.996 25v-2c4.963 0 9-4.037 9-9 0-4.938-3.997-8.959-8.925-9-4.677.039-8.659 3.607-9.083 8.155-.014.157-.006.317 0 .479.004.121.008.242.008.365h-2c0-.099-.004-.196-.007-.294a5.627 5.627 0 0 1 .008-.735c.515-5.543 5.332-9.895 10.999-9.97l.15.001c5.997.081 10.85 4.983 10.85 10.999 0 6.065-4.934 11-11 11z"/><path d="M15.997 14h-2c0-.144-.005-.287-.01-.43l-.015-.135.009-.096c.32-3.45 3.496-6.295 7.079-6.34l.025 2c-2.56.032-4.829 2.014-5.104 4.436.011.227.016.396.016.565zM10.996 25h-2.99C3.594 25 .004 21.411.004 17s3.588-8 7.999-8v2c-3.308 0-5.999 2.691-5.999 6s2.692 6 6.002 6h2.99v2zM14.996 20h2v8h-2v-8z"/><path d="M15.995 29.203l-3.682-3.476 1.374-1.454 2.31 2.18 2.317-2.182 1.372 1.458z"/></symbol><symbol viewBox="0 0 32 32" id="Drop"><path d="M15.999 31.195c-2.938 0-5.7-1.145-7.777-3.223-4.288-4.288-4.288-11.267 0-15.557l1.414 1.414c-3.508 3.51-3.508 9.22 0 12.729a8.941 8.941 0 0 0 6.363 2.637 8.946 8.946 0 0 0 6.365-2.637A8.939 8.939 0 0 0 25 20.195a8.943 8.943 0 0 0-2.636-6.365l1.414-1.414A10.928 10.928 0 0 1 27 20.195c0 2.938-1.144 5.7-3.222 7.777a10.929 10.929 0 0 1-7.779 3.223z"/><path d="M11.051 25.144c-1.32-1.32-2.048-3.078-2.048-4.95s.728-3.63 2.048-4.951l1.414 1.414a4.972 4.972 0 0 0-1.462 3.537c0 1.337.52 2.593 1.462 3.536l-1.414 1.414zM20.152 10.335L16 3.692l-4.152 6.643-1.696-1.06L16-.082l5.848 9.358z"/></symbol><symbol viewBox="0 0 32 32" id="Edit"><path d="M32 31H0V4h16v2H2v23h28V15h2z"/><path d="M17.12 21.537l-1.885-3.771-3.773-1.885L23.051 4.293l1.414 1.414-9.626 9.625 1.887.943.942 1.885 9.625-9.625 1.414 1.414zM30.121 8.535l-5.656-5.656.706-.707A3.971 3.971 0 0 1 27.999 1c1.069 0 2.073.416 2.829 1.172A3.967 3.967 0 0 1 32 4.996a3.97 3.97 0 0 1-1.172 2.832l-.707.707zm-2.64-5.468l2.451 2.45c.046-.166.068-.341.068-.519a1.98 1.98 0 0 0-.585-1.411 2.033 2.033 0 0 0-1.934-.52zM7.192 25.807l2.754-8.26 1.897.633-1.489 4.466 4.466-1.488.633 1.897z"/></symbol><symbol viewBox="0 0 32 32" id="EmptyBox"><path d="M16 24a6.01 6.01 0 0 1-5.917-5H-.142L2.125 2h27.751l2.267 17H21.917c-.478 2.833-2.949 5-5.917 5zM2.142 17H12v1c0 2.206 1.794 4 4 4s4-1.794 4-4v-1h9.858L28.125 4H3.875L2.142 17z"/><path d="M32 30H0v-9h2v7h28v-7h2z"/></symbol><symbol viewBox="0 0 32 32" id="Espresso"><path d="M23.198 32H4.802l2.215-12.179 1.966.358L7.198 30h13.604l-1.785-9.821 1.966-.358z"/><path d="M10.741 20.569l1.978.295-.936 6.284-1.978-.295.936-6.284zM21 18H7v-7.697L4.132 6H21v12zM9 16h10V8H7.868L9 9.697V16zM18 4h-2c0-1.103-.897-2-2-2s-2 .897-2 2h-2c0-2.206 1.794-4 4-4s4 1.794 4 4zM24 18h-1.038v-2H24c.552 0 1-.449 1-1v-4c0-.551-.448-1-1-1h-1.038V8H24c1.654 0 3 1.346 3 3v4.025A3.004 3.004 0 0 1 24 18z"/></symbol><symbol viewBox="0 0 32 32" id="Exit"><path d="M30 32H7v-5h2v3h19V2H9v3H7V0h23z"/><path d="M11 25.868V20H2v-2h11v4.132L22.197 16 13 9.868V14H2v-2h9V6.132L25.803 16z"/></symbol><symbol viewBox="0 0 32 32" id="ExitFullScreen"><path d="M26 15h-8.998V6h2v7H26z"/><path d="M30.294.293l1.414 1.414-12.071 12.071-1.414-1.414L30.294.293zM15 26h-2v-6.998H6v-2h9z"/><path d="M12.365 18.222l1.414 1.414L1.708 31.707.294 30.293l12.071-12.071zM2 7.035H0V.037h6.998v2H2zM0 9.037h2v5.998H0V9.037zM9.002.035H15v2H9.002v-2zM32 31.998h-6.998v-2H30V25h2zM30 17h2v5.998h-2V17zM17 30h6v2h-6v-2z"/></symbol><symbol viewBox="0 0 32 32" id="Export"><path d="M13 11h7v2h-7v-2z"/><path d="M9 17H7l.007-3.231C7.017 13.69 8.056 6 17.166 6H20v2h-2.834C10.094 8 9.094 13.322 9 13.956V17zM20 17.313V11h2v2.576l6.531-4.353L22 4.868V8h-2V1.132l12.137 8.091z"/><path d="M29 31H0V6h7v2H2v21h25V15.946h2z"/></symbol><symbol viewBox="0 0 32 32" id="Eye"><path d="M30.008 15.128C29.342 9.988 23.238 6 16.077 6h-.159c-7.238.06-13.355 4.062-13.924 9.112l-1.988-.225C.699 8.75 7.533 4.069 15.902 4h.173c8.149 0 15.123 4.751 15.917 10.872l-1.984.256zM15.927 28C7.775 28 .801 23.25.008 17.128l1.984-.257C2.657 22.012 8.762 26 15.925 26h.159c7.237-.06 13.354-4.062 13.922-9.112l1.988.224C31.302 23.25 24.47 27.931 16.1 28h-.173z"/><path d="M15.999 24c-4.374 0-7.962-3.559-7.998-7.934-.037-4.41 3.522-8.029 7.934-8.066 4.441 0 8.03 3.559 8.065 7.934a7.947 7.947 0 0 1-2.296 5.676A7.953 7.953 0 0 1 16.067 24h-.068zm.002-14c-3.358.027-6.027 2.742-6 6.05.027 3.281 2.718 5.95 5.998 5.95v1l.051-1a5.965 5.965 0 0 0 4.229-1.792 5.965 5.965 0 0 0 1.722-4.257c-.027-3.282-2.719-5.951-6-5.951z"/><path d="M12 16.034A4.005 4.005 0 0 1 15.968 12l.016 2a2.002 2.002 0 0 0-1.983 2.017L12 16.034z"/></symbol><symbol viewBox="0 0 32 32" id="FemaleFigure"><path d="M16 8c-2.206 0-4-1.794-4-4s1.794-4 4-4 4 1.794 4 4-1.794 4-4 4zm0-6c-1.103 0-2 .897-2 2s.897 2 2 2 2-.897 2-2-.897-2-2-2zM9.998 21.056l-1.996-.112.523-9.425 3.825-3.278 1.3 1.518-3.175 2.722zM22.002 21.056l-.477-8.575-3.175-2.722 1.3-1.518 3.825 3.278.523 9.425z"/><path d="M22.247 25H9.753l2.27-10.217 1.954.434L12.247 23h7.506l-1.73-7.783 1.954-.434zM18.907 32h-5.814l-.476-4.876 1.99-.193.3 3.069h2.186l.308-3.163 1.991.193z"/></symbol><symbol viewBox="0 0 32 32" id="File"><path d="M9 14h13v2H9v-2zM9 18h13v2H9v-2zM9 22h13v2H9v-2zM9 8h6v2H9V8z"/><path d="M29 32H2V4h2v26h23V2H2V0h27z"/></symbol><symbol viewBox="0 0 32 32" id="FileBox"><path d="M16 25a6.01 6.01 0 0 1-5.917-5H-.142L2.009 3.868l1.982.265L2.142 18H12v1c0 2.206 1.794 4 4 4s4-1.794 4-4v-1h9.857L28.009 4.132l1.982-.265L32.143 20H21.917A6.01 6.01 0 0 1 16 25z"/><path d="M32 31H0v-9h2v7h28v-7h2zM26 16h-2V3H8v13H6V1h20z"/><path d="M10 5h5v2h-5V5zM10 9h12v2H10V9zM10 13h12v2H10v-2z"/></symbol><symbol viewBox="0 0 32 32" id="Files"><path d="M24 28H2V0h22v28zM4 26h18V2H4v24z"/><path d="M7 12h12v2H7v-2zM7 16h12v2H7v-2zM7 20h12v2H7v-2zM7 7.983h6v2H7v-2z"/><path d="M30 32H9v-2h19V6h-1.945V4H30z"/></symbol><symbol viewBox="0 0 32 32" id="Flag"><path d="M4 0h2v32H4V0zM13.188 21.919c-1.386 0-2.899-.266-4.588-1.003l.8-1.832c3.333 1.454 5.753.728 8.314-.041 2.343-.705 4.961-1.491 8.286-.479V4.674c-3.025-1.119-5.305-.437-7.712.284-2.663.801-5.684 1.707-9.688-.042l.8-1.832c3.333 1.454 5.753.728 8.314-.041 2.663-.8 5.682-1.707 9.686.04l.6.263v18.182l-1.399-.61c-3.331-1.453-5.749-.727-8.313.041-1.54.462-3.2.96-5.1.96z"/></symbol><symbol viewBox="0 0 32 32" id="Floppy"><path d="M26 14H6V6h2v6h16V6h2z"/><path d="M22 10h-6V6h2v2h2V6h2z"/><path d="M32 32H0V0h26v2H2v28h28V5.999h2z"/><path d="M6 18h20v2H6v-2zM6 22h20v2H6v-2zM6 26h20v2H6v-2z"/></symbol><symbol viewBox="0 0 32 32" id="Folder"><path d="M31.999 29h-32V9h32v20zm-30-2h28V11h-28v16zM32 7H12V5H2v2H0V3h14v2h18z"/></symbol><symbol viewBox="0 0 32 32" id="Footbal"><path d="M10.218 32c-3.004 0-5.564-.973-7.404-2.813C-2.164 24.21-.298 14.245 6.973 6.973 11.339 2.607 16.875 0 21.782 0c3.004 0 5.564.973 7.405 2.814 4.977 4.977 3.111 14.942-4.159 22.214C20.66 29.394 15.124 32 10.218 32zM21.782 2c-4.388 0-9.395 2.388-13.395 6.387C1.896 14.879.03 23.575 4.228 27.773 5.685 29.23 7.756 30 10.218 30c4.388 0 9.396-2.387 13.396-6.386 6.49-6.492 8.356-15.188 4.159-19.386C26.315 2.771 24.244 2 21.782 2z"/><path d="M22.364 8.222l1.414 1.414L9.635 23.779l-1.414-1.414L22.364 8.222z"/><path d="M8.999 18h8.002v2H8.999v-2z"/><path d="M12 15h2v8h-2v-8zM14.999 12h8.002v2h-8.002v-2z"/><path d="M18 9h2v8h-2V9z"/></symbol><symbol viewBox="0 0 32 32" id="ForkandKnife"><path d="M11 32c-1.654 0-3-1.346-3-3V18h2v11c0 .551.449 1 1 1s1-.449 1-1V5c0-1.654-1.346-3-3-3S6 3.346 6 5v13H4V5c0-2.757 2.243-5 5-5s5 2.243 5 5v24c0 1.654-1.346 3-3 3zM22 32c-1.654 0-3-1.346-3-3V13.414l-3-3V0h2v9.586l3 3V29a1.001 1.001 0 0 0 2 0V12.586l3-3V0h2v10.414l-3 3V29c0 1.654-1.346 3-3 3z"/><path d="M22.987-.001l.014 10-2 .003-.014-10 2-.003z"/></symbol><symbol viewBox="0 0 32 32" id="Forward"><path d="M16 32C7.178 32 0 24.822 0 16S7.178 0 16 0s16 7.178 16 16-7.178 16-16 16zm0-30C8.28 2 2 8.28 2 16s6.28 14 14 14 14-6.28 14-14S23.72 2 16 2z"/><path d="M8 22.805V14h2v5.195l5.032-3.144-7.517-4.177.97-1.748 10.483 5.823z"/><path d="M15 22.805V20h.713l6.319-3.949-7.517-4.177.97-1.748 10.483 5.823z"/></symbol><symbol viewBox="0 0 32 32" id="FullScreen"><path d="M32 9h-2V2h-6.999V0H32z"/><path d="M30.293.293l1.414 1.414-13.071 13.071-1.414-1.414L30.293.293zM8.999 32H0v-8.998h2V30h6.999z"/><path d="M13.365 17.222l1.414 1.414L1.708 31.707.294 30.293l13.071-13.071zM6 11H4V4.002h6.998v2H6zM4 13.002h2V19H4v-5.998zM13.001 4H19v2h-5.999V4zM28 27.998h-6.998v-2H26V21h2zM26 13h2v5.998h-2V13zM13 26h5.999v2H13v-2z"/></symbol><symbol viewBox="0 0 32 32" id="FullShoppingCart"><path d="M28.835 22H9.24l-5-18H1V2h4.76l5 18h16.405l1.637-9H13.045V9h18.153zM12 30c-1.654 0-3-1.346-3-3s1.346-3 3-3 3 1.346 3 3-1.346 3-3 3zm0-4a1 1 0 1 0 0 2 1 1 0 0 0 0-2zM25 30c-1.654 0-3-1.346-3-3s1.346-3 3-3 3 1.346 3 3-1.346 3-3 3zm0-4a1 1 0 1 0 0 2 1 1 0 0 0 0-2z"/><path d="M15 13h2v5h-2v-5zM21 13h2v5h-2v-5zM15 7h-2V4.279l6.684-2.227.632 1.896L15 5.721z"/><path d="M29 7h-2V4.781l-6-1.5V7h-2V.719l10 2.5z"/></symbol><symbol viewBox="0 0 32 32" id="Gameboy"><path d="M9 22h6v2H9v-2z"/><path d="M11 20h2v6h-2v-6zM22.553 20.105l.894 1.789-2 1-.894-1.789 2-1zM19.553 23.105l.894 1.789-2 1-.894-1.789 2-1zM27 12h-2V2H7v10H5V0h22z"/><path d="M23 12h-2V6H11v6H9V4h14zM27 32H5V14h22v18zM7 30h18V16H7v14z"/></symbol><symbol viewBox="0 0 32 32" id="Glasses"><path d="M7 30c-3.859 0-7-3.141-7-7s3.141-7 7-7 7 3.141 7 7-3.141 7-7 7zm0-12c-2.757 0-5 2.243-5 5s2.243 5 5 5 5-2.243 5-5-2.243-5-5-5z"/><path d="M6 23H4c0-1.654 1.346-3 3-3v2a1 1 0 0 0-1 1zM24 23h-2c0-1.654 1.346-3 3-3v2a1 1 0 0 0-1 1z"/><path d="M25 30c-3.859 0-7-3.141-7-7s3.141-7 7-7 7 3.141 7 7-3.141 7-7 7zm0-12c-2.757 0-5 2.243-5 5s2.243 5 5 5 5-2.243 5-5-2.243-5-5-5z"/><path d="M13 22h6v2h-6v-2zM1.98 16.196l-1.96-.392 1.981-9.909A4.006 4.006 0 0 1 6 2v2c-1.103 0-2 .897-2 2l-.02.196-2 10zM30.02 16.196L28 6c0-1.103-.897-2-2-2V2a4.006 4.006 0 0 1 3.999 3.895l1.981 9.909-1.96.392z"/></symbol><symbol viewBox="0 0 32 32" id="Goto"><path d="M7 17h9v2H7v-2z"/><path d="M2 25H0v-4c.004-.132.453-10 12-10h4v2h-4c-9.633 0-9.99 7.704-10.001 8.032L2 25zM17 24.868V19h-1v-2h3v4.132L28.197 15 19 8.868V13h-3v-2h1V5.132L31.803 15z"/></symbol><symbol viewBox="0 0 32 32" id="Handicap"><path d="M21.5 8c-2.206 0-4-1.794-4-4s1.794-4 4-4 4 1.794 4 4-1.794 4-4 4zm0-6c-1.103 0-2 .897-2 2s.897 2 2 2 2-.897 2-2-.897-2-2-2zM13.5 32c-4.963 0-9-4.037-9-9s4.037-9 9-9v2c-3.859 0-7 3.141-7 7s3.141 7 7 7 7-3.141 7-7h2c0 4.963-4.037 9-9 9z"/><path d="M13.5 28c-2.757 0-5-2.243-5-5s2.243-5 5-5v2c-1.654 0-3 1.346-3 3s1.346 3 3 3 3-1.346 3-3h2c0 2.757-2.243 5-5 5z"/><path d="M25.48 30.196l-1.96-.392L25.28 21H14.023l3.991-9.978-5.213.079-5.8 3.74-1.084-1.682 6.282-4.049 8.787-.132L16.977 19H27.72z"/></symbol><symbol viewBox="0 0 32 32" id="Hanger"><path d="M30.745 26H1.3l-1.499-5.31 14.798-6.472.802 1.832-13.202 5.774L2.813 24h26.403l.622-2.284L15 12.568V10.01h1A2.005 2.005 0 0 0 16 6c-1.103 0-2 .893-2 1.989h-2a4 4 0 0 1 8 .015 4.01 4.01 0 0 1-2.542 3.73l14.703 9.064L30.745 26z"/></symbol><symbol viewBox="0 0 32 32" id="Headset"><path d="M7 24.996H6c-3.421 0-6-2.579-6-6s2.579-6 6-6h1v12zm-2-9.89c-1.786.41-3 1.921-3 3.89s1.214 3.479 3 3.89v-7.78zM26 24.996h-1v-12h1c3.421 0 6 2.579 6 6s-2.579 6-6 6zm1-9.89v7.779c1.786-.41 3-1.921 3-3.89s-1.214-3.478-3-3.889zM27 29.996v-2c.498 0 1-.31 1-1h2c0 1.71-1.29 3-3 3zM23 27.996h4v2h-4v-2z"/><path d="M20.526 32.005c-1.654 0-3-1.346-3-3s1.346-3 3-3 3 1.346 3 3-1.345 3-3 3zm0-4a1 1 0 1 0 0 2 1 1 0 0 0 0-2zM27 11.002h-2c0-4.966-4.037-9.006-9-9.006s-9 4.04-9 9.006H5C5 4.934 9.935-.004 16-.004s11 4.938 11 11.006z"/></symbol><symbol viewBox="0 0 32 32" id="Heart"><path d="M16.32 30.733L2.233 17.657A9.61 9.61 0 0 1 0 11.5C0 6.262 4.262 2 9.5 2c2.442 0 4.756.918 6.5 2.55A9.492 9.492 0 0 1 22.5 2c5.238 0 9.5 4.262 9.5 9.5a9.61 9.61 0 0 1-2.233 6.157l-.095.099-11 9.984-1.344-1.48 10.947-9.937A7.715 7.715 0 0 0 30 11.5C30 7.364 26.636 4 22.5 4a7.474 7.474 0 0 0-5.735 2.645L16 7.551l-.765-.907A7.477 7.477 0 0 0 9.5 4C5.364 4 2 7.364 2 11.5c0 1.735.629 3.49 1.728 4.827l13.952 12.94-1.36 1.466z"/><path d="M15.208 24.247l-10.07-9.361A5.646 5.646 0 0 1 4 11.5C4 8.467 6.467 6 9.5 6v2C7.57 8 6 9.57 6 11.5c0 .742.249 1.507.684 2.114l9.885 9.167-1.361 1.466zm4.233-14.239l-1.752-.965a5.458 5.458 0 0 1 3.289-2.626 5.467 5.467 0 0 1 4.183.464l-.965 1.752a3.479 3.479 0 0 0-2.662-.295 3.475 3.475 0 0 0-2.093 1.67z"/></symbol><symbol viewBox="0 0 32 32" id="Help"><path d="M18.131 31.921l-.262-1.982C24.785 29.025 30 23.063 30 16.07c0-7.72-6.28-14-14-14s-14 6.28-14 14c0 6.993 5.215 12.955 12.131 13.868l-.262 1.982C5.962 30.878 0 24.063 0 16.07c0-8.822 7.178-16 16-16s16 7.178 16 16c0 7.993-5.962 14.808-13.869 15.851z"/><path d="M17 18.9h-2v-3.97h1c2.206 0 4-1.794 4-4s-1.794-4-4-4-4 1.794-4 4h-2c0-3.309 2.691-6 6-6s6 2.691 6 6a6.01 6.01 0 0 1-5 5.917V18.9zM16 26.93c-1.654 0-3-1.346-3-3s1.346-3 3-3 3 1.346 3 3-1.346 3-3 3zm0-4a1.001 1.001 0 0 0 0 2 1.001 1.001 0 0 0 0-2z"/></symbol><symbol viewBox="0 0 32 32" id="Hourglass"><path d="M16 17c-4.963 0-9-4.037-9-9h2c0 3.859 3.141 7 7 7s7-3.141 7-7h2c0 4.963-4.037 9-9 9zM27 6H5V0h22v6zM7 4h18V2H7v2z"/><path d="M25 24h-2c0-3.859-3.141-7-7-7s-7 3.141-7 7H7c0-4.963 4.037-9 9-9s9 4.037 9 9z"/><path d="M13 24h-2c0-2.757 2.243-5 5-5v2c-1.654 0-3 1.346-3 3zM16 13c-2.757 0-5-2.243-5-5h2c0 1.654 1.346 3 3 3v2zM27 32H5v-6h22v6zM7 30h18v-2H7v2z"/></symbol><symbol viewBox="0 0 32 32" id="House"><path d="M28.002 32h-24V19h2v11h20V19h2zM30.271 18.684L16 3.462 1.729 18.684.271 17.316 16 .538l15.729 16.778z"/><path d="M20 28h-2v-7h-4v7h-2v-9h8zM16.002 17c-2.206 0-4-1.794-4-4s1.794-4 4-4 4 1.794 4 4-1.794 4-4 4zm0-6c-1.103 0-2 .897-2 2s.897 2 2 2 2-.897 2-2-.898-2-2-2z"/></symbol><symbol viewBox="0 0 32 32" id="Icecream1"><path d="M17.739 32H14.3l-4.24-11.658 1.88-.684L15.7 30h.561l3.783-12.294 1.912.588zM21 16c-3.309 0-6-2.691-6-6s2.691-6 6-6 6 2.691 6 6-2.691 6-6 6zm0-10c-2.206 0-4 1.794-4 4s1.794 4 4 4 4-1.794 4-4-1.794-4-4-4z"/><path d="M21 10h-2c0-1.103.897-2 2-2v2zM11 13H9c0-1.103.897-2 2-2v2z"/><path d="M11 19c-3.309 0-6-2.691-6-6a6.006 6.006 0 0 1 8.287-5.549L12.524 9.3A4.004 4.004 0 0 0 7 13c0 2.206 1.794 4 4 4a3.988 3.988 0 0 0 3.116-1.489l1.556 1.257A5.98 5.98 0 0 1 11 19zM11.068 5.261l-1.966-.365A5.996 5.996 0 0 1 15 0c1.815 0 3.513.808 4.658 2.217l-1.552 1.262A3.987 3.987 0 0 0 15 2a3.997 3.997 0 0 0-3.932 3.261z"/></symbol><symbol viewBox="0 0 32 32" id="Icecream2"><path d="M16.843 29.3L2.711 15.148 14.945 2.916a9.88 9.88 0 0 1 7.034-2.917 9.956 9.956 0 0 1 7.083 2.941A9.949 9.949 0 0 1 32 10.002a9.9 9.9 0 0 1-2.922 7.064L16.843 29.3zM5.539 15.149l11.306 11.322 10.82-10.819a7.916 7.916 0 0 0 2.336-5.647 7.956 7.956 0 0 0-2.352-5.65A7.97 7.97 0 0 0 21.98 2a7.898 7.898 0 0 0-5.62 2.331L5.539 15.149z"/><path d="M10.487 15.858l-1.414-1.414 8.7-8.699a5.908 5.908 0 0 1 4.206-1.746 5.98 5.98 0 0 1 4.254 1.77L24.82 7.184c-1.52-1.518-4.128-1.53-5.633-.025l-8.7 8.699zM3 32a2.99 2.99 0 0 1-2.121-.877A2.985 2.985 0 0 1 0 28.999c0-.802.313-1.555.88-2.121l5.483-5.484 1.414 1.414-5.484 5.485A.99.99 0 0 0 2 29a1 1 0 0 0 1.707.709l5.484-5.486 1.414 1.414-5.484 5.486A2.988 2.988 0 0 1 3 32z"/></symbol><symbol viewBox="0 0 32 32" id="Imbox"><path d="M32 32H0V7h2v23h28V7h2z"/><path d="M9.144 15.486l1.715 1.029-6.001 9.999-1.715-1.029 6.001-9.999z"/><path d="M16 20.118L3.553 13.895l.894-1.79L16 17.882l11.553-5.777.894 1.79z"/><path d="M22.857 15.486l6 10-1.715 1.029-6-10 1.715-1.029zM28 11h-2V2H6v9H4V0h24z"/><path d="M8 4h7v2H8V4zM8 8h14v2H8V8z"/></symbol><symbol viewBox="0 0 32 32" id="Info"><path d="M16 31.93c-8.822 0-16-7.178-16-16C0 7.937 5.962 1.122 13.869.079l.262 1.982C7.215 2.975 2 8.937 2 15.93c0 7.72 6.28 14 14 14s14-6.28 14-14c0-6.993-5.215-12.955-12.131-13.868L18.131.08C26.038 1.122 32 7.937 32 15.93c0 8.822-7.178 16-16 16z"/><path d="M16 12.93c-1.654 0-3-1.346-3-3s1.346-3 3-3 3 1.346 3 3-1.346 3-3 3zm0-4a1.001 1.001 0 0 0 0 2 1.001 1.001 0 0 0 0-2zM15 14.93h2v10h-2v-10z"/></symbol><symbol viewBox="0 0 32 32" id="Ipod"><path d="M25 12h-2V2H9v10H7V0h18zM25 32H7V14h18v18zM9 30h14V16H9v14z"/><path d="M16 28c-2.757 0-5-2.243-5-5s2.243-5 5-5 5 2.243 5 5-2.243 5-5 5zm0-8c-1.654 0-3 1.346-3 3s1.346 3 3 3 3-1.346 3-3-1.346-3-3-3z"/></symbol><symbol viewBox="0 0 32 32" id="Key"><path d="M9 32H0v-6.393l11.263-12.283 1.474 1.352L2 26.385V30h5v-4h4.538l5.703-6.65 1.518 1.3L12.458 28H9zM22 20v-2c4.411 0 8-3.589 8-8s-3.589-8-8-8-8 3.589-8 8h-2c0-5.514 4.486-10 10-10s10 4.486 10 10-4.486 10-10 10z"/><path d="M22 14c-2.206 0-4-1.795-4-4s1.794-4 4-4 4 1.795 4 4-1.794 4-4 4zm0-6c-1.103 0-2 .896-2 2s.897 2 2 2 2-.896 2-2-.897-2-2-2z"/></symbol><symbol viewBox="0 0 32 32" id="Keyboard"><path d="M6 14h2v2H6v-2zM12 14h2v2h-2v-2zM18 14h2v2h-2v-2zM24 14h2v2h-2v-2zM6 10h2v2H6v-2zM12 10h2v2h-2v-2zM18 10h2v2h-2v-2zM24 10h2v2h-2v-2zM8 20h16v2H8v-2z"/><path d="M32 27H0V8h2v17h28V7H0V5h32z"/></symbol><symbol viewBox="0 0 32 32" id="Layers"><path d="M16 18.886L.891 10.75 16 2.614l15.109 8.136L16 18.886zM5.109 10.75L16 16.614l10.891-5.864L16 4.886 5.109 10.75z"/><path d="M16 23.734L1.56 16.648l.88-1.796L16 21.508l13.56-6.656.88 1.796z"/><path d="M16 28.863L1.56 21.777l.88-1.797L16 26.637l13.56-6.657.88 1.797z"/></symbol><symbol viewBox="0 0 32 32" id="Like"><path d="M10.48 14H8v-2h1.52L13 7.649V4c0-2.206 1.794-4 4-4s4 1.794 4 4h-2c0-1.103-.897-2-2-2s-2 .897-2 2v4.351L10.48 14z"/><path d="M27.812 32l-11.087-.039L9.86 30H8v-2l2.275.039L17.14 30h9.108l3.524-14.19L19 13.867V4h2v8.195l11.228 2.026zM6 30H0V12h6v18zm-4-2h2V14H2v14z"/></symbol><symbol viewBox="0 0 32 32" id="Linked"><path d="M12.806 19.192c-3.507-3.51-3.507-9.22 0-12.729l1.414 1.414c-2.728 2.729-2.728 7.17 0 9.9l-1.414 1.415z"/><path d="M25.534 19.192l-1.414-1.414 3.829-3.828c2.729-2.731 2.729-7.172 0-9.9-2.729-2.728-7.17-2.729-9.899 0l-3.829 3.828-1.414-1.414 3.829-3.828c3.508-3.509 9.218-3.509 12.728 0 3.509 3.507 3.509 9.218 0 12.729l-3.83 3.827z"/><path d="M19.193 25.534l-1.414-1.414c2.729-2.729 2.729-7.169 0-9.9l1.414-1.414c3.509 3.51 3.509 9.221 0 12.728z"/><path d="M9 31.996a8.97 8.97 0 0 1-6.364-2.632c-3.509-3.509-3.509-9.219 0-12.729l3.829-3.83L7.88 14.22l-3.829 3.83c-2.729 2.729-2.729 7.171 0 9.9s7.17 2.729 9.899 0l3.829-3.83 1.414 1.414-3.829 3.83A8.969 8.969 0 0 1 9 31.996z"/></symbol><symbol viewBox="0 0 32 32" id="List"><path d="M3 11c-1.654 0-3-1.346-3-3s1.346-3 3-3 3 1.346 3 3-1.346 3-3 3zm0-4c-.551 0-1 .449-1 1s.449 1 1 1 1-.449 1-1-.449-1-1-1zM3 19c-1.654 0-3-1.346-3-3s1.346-3 3-3 3 1.346 3 3-1.346 3-3 3zm0-4c-.551 0-1 .449-1 1s.449 1 1 1 1-.449 1-1-.449-1-1-1zM3 27c-1.654 0-3-1.346-3-3s1.346-3 3-3 3 1.346 3 3-1.346 3-3 3zm0-4c-.551 0-1 .449-1 1s.449 1 1 1 1-.449 1-1-.449-1-1-1zM32 11H8V9h22V7H8V5h24zM32 19H8v-2h22v-2H8v-2h24zM32 27H8v-2h22v-2H8v-2h24z"/></symbol><symbol viewBox="0 0 32 32" id="Magnet"><path d="M16 32C9.935 32 5 27.065 5 21V10.018h2V21c0 4.962 4.037 9 9 9s9-4.038 9-9V10.018h2V21c0 6.065-4.935 11-11 11z"/><path d="M16 25.994c-2.757 0-5-2.24-5-4.994V10h2v11a3 3 0 0 0 3 2.994c1.654 0 3-1.348 3-3.004V10h2v10.99a5.007 5.007 0 0 1-5 5.004zM13 8H5V0h8v8zM7 6h4V2H7v4zM27 8h-8V0h8v8zm-6-2h4V2h-4v4z"/></symbol><symbol viewBox="0 0 32 32" id="Mail"><path d="M32 29H0V3h32v26zM2 27h28V5H2v22z"/><path d="M9.144 12.486l1.715 1.029-6.001 9.999-1.715-1.029 6.001-9.999z"/><path d="M16 17.118L3.553 10.895l.894-1.79L16 14.882l11.553-5.777.894 1.79z"/><path d="M22.857 12.486l6 10-1.715 1.029-6-10 1.715-1.029z"/></symbol><symbol viewBox="0 0 32 32" id="ManFigure"><path d="M16 8c-2.206 0-4-1.794-4-4s1.794-4 4-4 4 1.794 4 4-1.794 4-4 4zm0-6c-1.103 0-2 .897-2 2s.897 2 2 2 2-.897 2-2-.897-2-2-2zM9.999 21.056l-1.998-.112.524-9.425 3.824-3.278 1.302 1.518-3.176 2.722zM22.002 21.056l-.477-8.575-3.175-2.722 1.3-1.518 3.825 3.278.523 9.425zM18.905 32h-5.81l-1.09-10.9L12 15h2v6l.904 9h2.191l.91-9.1L18 15h2v6z"/></symbol><symbol viewBox="0 0 32 32" id="Mastercard"><path d="M17.001 24h-.024c-1.068-.006-2.071-.429-2.822-1.188S12.994 21.045 13 19.977A4.01 4.01 0 0 1 17 16c1.092.006 2.094.429 2.845 1.188s1.161 1.767 1.155 2.835A4.01 4.01 0 0 1 17.001 24zm.011-6A2.008 2.008 0 0 0 15 19.988a1.985 1.985 0 0 0 .578 1.417c.375.381.876.592 1.411.595l.013 1v-1a2.004 2.004 0 0 0 1.999-1.988 1.985 1.985 0 0 0-.578-1.417A1.985 1.985 0 0 0 17.012 18zM24 24h-.025a3.974 3.974 0 0 1-2.82-1.19l1.424-1.404c.375.38.875.591 1.409.595h.013c.529 0 1.028-.205 1.405-.578.381-.376.592-.877.595-1.411s-.202-1.037-.577-1.417-.876-.591-1.41-.594c-.556-.027-1.038.201-1.418.577l-1.406-1.424A3.968 3.968 0 0 1 24 16h.024a3.972 3.972 0 0 1 2.821 1.188 3.975 3.975 0 0 1 1.154 2.835 3.98 3.98 0 0 1-1.188 2.822A3.972 3.972 0 0 1 24 24z"/><path d="M32 28H0V4h32v24zM2 26h28V6H2v20z"/><path d="M4 10h24v2H4v-2z"/></symbol><symbol viewBox="0 0 32 32" id="Medal"><path d="M16 32c-4.411 0-8-3.589-8-8s3.589-8 8-8 8 3.589 8 8-3.589 8-8 8zm0-14c-3.309 0-6 2.691-6 6s2.691 6 6 6 6-2.691 6-6-2.691-6-6-6z"/><path d="M14 24h-2c0-2.206 1.794-4 4-4v2c-1.103 0-2 .897-2 2zM17.316 13.949l-.632-1.898 8.162-2.72L24 5V2H8l-.02 3.196-.826 4.135 8.162 2.72-.632 1.898-9.838-3.28L6 4.901V0h20v4.901l1.154 5.768z"/><path d="M12 4h2v4h-2V4zM18 4h2v4h-2V4z"/></symbol><symbol viewBox="0 0 32 32" id="Media"><path d="M32 29H0V3h32v26zM2 27h28V5H2v22z"/><path d="M12 21.618V10.382L23.236 16 12 21.618zm2-8v4.764L18.764 16 14 13.618z"/></symbol><symbol viewBox="0 0 32 32" id="Megaphone"><path d="M15 20h-5v-2h3v-8H8V8h7z"/><path d="M32 26.414l-18.333-6.471.666-1.886L30 23.586V4.414L14.333 9.943l-.666-1.886L32 1.586z"/><path d="M26.654 7.717l.693 1.876-8.989 3.322-.693-1.876 8.989-3.322zM6 20H0V8h6v12zm-4-2h2v-8H2v8zM8 30c-2.206 0-4-1.794-4-4v-4h2v4c0 1.103.897 2 2 2s2-.897 2-2v-4h4v2h-2v2c0 2.206-1.794 4-4 4z"/></symbol><symbol viewBox="0 0 32 32" id="Menu"><path d="M6 11h20v2H6v-2zM6 15h20v2H6v-2zM6 19h20v2H6v-2z"/><path d="M32 29H0V7h2v20h28V5H0V3h32z"/></symbol><symbol viewBox="0 0 32 32" id="Message"><path d="M0 31.439V2h32v21H11v-2h19V4H2v21.561l3.207-4.17 1.585 1.218z"/><path d="M6 9h20v2H6V9zM6 14.031h14v2H6v-2z"/></symbol><symbol viewBox="0 0 32 32" id="MessageLeft"><path d="M16 14h12v2H16v-2zM16 18.02h8v2h-8v-2zM10 20H0V4h20v2.984h-2V6H2v12h8z"/><path d="M3.971 8.984h6v2h-6v-2zM3.971 13.004H10v2H3.971v-2zM12 31V9h20v16H19v-2h11V11H14v14l1.2-1.6 1.6 1.2z"/></symbol><symbol viewBox="0 0 32 32" id="MessageRight"><path d="M32 20H22v-2h8V6H14v.982h-2V4h20z"/><path d="M22.027 8.984h6v2h-6v-2zM22 13.004h6.027v2H22v-2zM4 14h12v2H4v-2zM4 18.02h8v2H4v-2z"/><path d="M0 31V9h20v16H7v-2h11V11H2v14l1.2-1.6 1.6 1.2z"/></symbol><symbol viewBox="0 0 32 32" id="Microphone"><path d="M3.344 32a3.325 3.325 0 0 1-2.365-.979 3.348 3.348 0 0 1 0-4.728l1.414 1.414A1.345 1.345 0 0 0 3.344 30c.358 0 .695-.14.948-.393l1.416 1.412A3.317 3.317 0 0 1 3.346 32h-.002zM23 18c-4.963 0-9-4.037-9-9s4.037-9 9-9 9 4.037 9 9-4.037 9-9 9zm0-16c-3.859 0-7 3.141-7 7s3.141 7 7 7 7-3.141 7-7-3.141-7-7-7z"/><path d="M25.121 6.879c-1.131-1.131-3.111-1.131-4.242 0l-1.414-1.414c.943-.944 2.198-1.464 3.535-1.464s2.592.521 3.535 1.464l-1.414 1.414zM17.813 22.258L9.984 14.43l.814-4.062 1.961.393-.603 3.012 6.313 6.313 3.012-.603.393 1.961z"/><path d="M8.237 30.339l-6.335-6.334 8.386-10.526 1.565 1.246-7.273 9.129 3.808 3.807 9.13-7.271 1.246 1.564z"/></symbol><symbol viewBox="0 0 32 32" id="Microphone2"><path d="M16 28.002c-6.617 0-12-5.402-12-12.042h2c0 5.537 4.486 10.042 10 10.042s10-4.468 10-9.959h2c0 6.594-5.383 11.959-12 11.959z"/><path d="M17.14 23.87l-.279-1.98c2.93-.413 5.14-2.962 5.14-5.93v-8c0-2.966-2.21-5.516-5.14-5.93L17.14.05C21.051.603 24 4.003 24 7.96v8c0 3.958-2.949 7.358-6.86 7.91zM14.86 23.87C10.949 23.318 8 19.918 8 15.96v-8C8 4.003 10.949.603 14.86.05l.279 1.98C12.21 2.444 10 4.994 10 7.96v8c0 2.967 2.21 5.517 5.14 5.93l-.28 1.98z"/><path d="M15 3.96h2v16h-2v-16zM20 5.96h2v2h-2v-2zM20 10.96h2v2h-2v-2zM20 15.96h2v2h-2v-2zM10 5.96h2v2h-2v-2zM10 10.96h2v2h-2v-2zM10 15.96h2v2h-2v-2zM11 29.96h10v2H11v-2z"/></symbol><symbol viewBox="0 0 32 32" id="Mouse"><path d="M27 11h-2c0-4.963-4.038-9-9-9s-9 4.037-9 9H5C5 4.935 9.935 0 16 0s11 4.935 11 11zM16 32C9.935 32 5 27.065 5 21v-8h2v8c0 4.963 4.038 9 9 9s9-4.037 9-9v-8h2v8c0 6.065-4.935 11-11 11z"/><path d="M15 6h2v8h-2V6z"/></symbol><symbol viewBox="0 0 32 32" id="Movie"><path d="M32 29H0V3h32v26zM2 27h28V5H2v22z"/><path d="M27 11h-6V7h2v2h2V7h2zM19 11h-6V7h2v2h2V7h2zM11 11H5V7h2v2h2V7h2zM11 25H9v-2H7v2H5v-4h6zM19 25h-2v-2h-2v2h-2v-4h6zM27 25h-2v-2h-2v2h-2v-4h6z"/></symbol><symbol viewBox="0 0 32 32" id="Mug"><path d="M19.01 32h-14c-2.757 0-5-2.244-5-5.001V0h24v26.999a5.007 5.007 0 0 1-5 5.001zm-7-2h7c1.654 0 3-1.346 3-3.001V2h-20v24.999a3.004 3.004 0 0 0 3 3.001h7zM29.01 18h-3.02v-2h3.02c.541 0 .98-.449.98-1V5c0-.551-.44-1-.98-1h-3.02V2h3.02c1.644 0 2.98 1.346 2.98 3v10.025C31.977 16.668 30.645 18 29.01 18z"/><path d="M7.01 28c-1.654 0-3-1.346-3-3V4h2v21c0 .551.449 1 1 1v2z"/></symbol><symbol viewBox="0 0 32 32" id="MusicMixer"><path d="M5 0h2v8H5V0zM5 20h2v12H5V20zM6 18c-2.206 0-4-1.794-4-4s1.794-4 4-4 4 1.794 4 4-1.794 4-4 4zm0-6c-1.103 0-2 .897-2 2s.897 2 2 2 2-.897 2-2-.897-2-2-2zM15 0h2v16h-2V0zM15 28h2v4h-2v-4zM16 26c-2.206 0-4-1.794-4-4s1.794-4 4-4 4 1.794 4 4-1.794 4-4 4zm0-6c-1.103 0-2 .897-2 2s.897 2 2 2 2-.897 2-2-.897-2-2-2zM25 0h2v4h-2V0zM25 16h2v16h-2V16zM26 14c-2.206 0-4-1.794-4-4s1.794-4 4-4 4 1.794 4 4-1.794 4-4 4zm0-6c-1.103 0-2 .897-2 2s.897 2 2 2 2-.897 2-2-.897-2-2-2z"/></symbol><symbol viewBox="0 0 32 32" id="MusicNote"><path d="M24 30c-3.309 0-6-2.691-6-6s2.691-6 6-6 6 2.691 6 6-2.691 6-6 6zm0-10c-2.206 0-4 1.794-4 4s1.794 4 4 4 4-1.794 4-4-1.794-4-4-4zM8 32c-3.309 0-6-2.691-6-6s2.691-6 6-6 6 2.691 6 6-2.691 6-6 6zm0-10c-2.206 0-4 1.794-4 4s1.794 4 4 4 4-1.794 4-4-1.794-4-4-4z"/><path d="M14 26h-2V7.326L28.601.083l.798 1.834L14 8.635zM28 5h2v19h-2V5z"/></symbol><symbol viewBox="0 0 32 32" id="MusicNote2"><path d="M10 31c-3.309 0-6-2.691-6-6s2.691-6 6-6 6 2.691 6 6-2.691 6-6 6zm0-10c-2.206 0-4 1.794-4 4s1.794 4 4 4 4-1.794 4-4-1.794-4-4-4z"/><path d="M16 25h-2V6.333L28 .5v12.207l-9.151 3.235-.666-1.884L26 11.293V3.5L16 7.667z"/></symbol><symbol viewBox="0 0 32 32" id="Mute"><path d="M20 29.84L7.456 21.708l1.088-1.678L18 26.16V5.822l-9.463 6.022-1.074-1.688L20 2.178z"/><path d="M14.484 11.142l1.029 1.715-5 3.001-1.029-1.715 5-3.001zM6 22H0V10h6v12zm-4-2h2v-8H2v8zM23.707 11.293l8 8-1.414 1.414-8-8 1.414-1.414z"/><path d="M30.293 11.293l1.414 1.414-8 8-1.414-1.414 8-8z"/></symbol><symbol viewBox="0 0 32 32" id="Next"><path d="M16 32C7.178 32 0 24.822 0 16S7.178 0 16 0s16 7.178 16 16-7.178 16-16 16zm0-30C8.28 2 2 8.28 2 16s6.28 14 14 14 14-6.28 14-14S23.72 2 16 2z"/><path d="M14 22.805V14h2v5.195l5.032-3.144-7.517-4.177.97-1.748 10.483 5.823zM10 11h2v12h-2V11z"/></symbol><symbol viewBox="0 0 32 32" id="Notebook"><path d="M32 28H0v-6h32v6zM2 26h28v-2H2v2zM30 20h-2V6H4v14H2V4h28z"/><path d="M26 20h-2V10H8v10H6V8h20z"/></symbol><symbol viewBox="0 0 32 32" id="Notes"><path d="M8 27H2v-6h6v6zm-4-2h2v-2H4v2zM8 19H2v-6h6v6zm-4-2h2v-2H4v2z"/><path d="M30 32H4v-2.946h2V30h22V2H6v.985H4V0h26z"/><path d="M8 11H2V5h6v6zM4 9h2V7H4v2zM22 2h2v28h-2V2z"/></symbol><symbol viewBox="0 0 32 32" id="On-Off"><path d="M9.977 26.001c-5.501 0-9.977-4.486-9.977-10s4.47-10 9.965-10l12.059-.002c5.501 0 9.977 4.486 9.977 10C32 21.514 27.53 26 22.035 26l-12.058.001zM22.023 7.999l-12.058.002c-4.392 0-7.965 3.589-7.965 8s3.578 8 7.977 8L22.035 24C26.427 24 30 20.411 30 15.999c0-4.411-3.578-8-7.977-8z"/><path d="M10 22.001c-3.309 0-6-2.691-6-6s2.691-6 6-6 6 2.691 6 6-2.691 6-6 6zm0-10c-2.206 0-4 1.794-4 4s1.794 4 4 4 4-1.794 4-4-1.794-4-4-4z"/></symbol><symbol viewBox="0 0 32 32" id="OpenedLock"><path d="M16 32C9.383 32 4 26.617 4 20v-6h24v6c0 6.617-5.384 12-12 12zM6 16v4c0 5.514 4.486 10 10 10s10-4.486 10-10v-4H6z"/><path d="M16 27a3.004 3.004 0 0 1-3-2.975V22c0-1.654 1.346-3 3-3s3 1.346 3 3v2.025A3.004 3.004 0 0 1 16 27zm0-6c-.551 0-1 .449-1 1v2c0 .551.449 1 1 1s1-.449 1-1v-2c0-.551-.449-1-1-1zM8.971 12.564C6.765 9.475 7.193 5.205 9.988 2.41c3.117-3.119 8.094-3.219 11.092-.223l3.051 3.051-1.414 1.414-3.051-3.051c-2.218-2.217-5.925-2.117-8.264.223-2.101 2.101-2.438 5.287-.803 7.578l-1.628 1.162z"/></symbol><symbol viewBox="0 0 32 32" id="PaperClip"><path d="M10 31a9.932 9.932 0 0 1-7.071-2.93A9.93 9.93 0 0 1 0 21a9.936 9.936 0 0 1 2.929-7.072l11.56-12.387 1.463 1.364L4.367 15.317C2.832 16.853 2 18.863 2 21s.832 4.146 2.343 5.656C5.854 28.167 7.863 29 10 29s4.146-.833 5.656-2.344L28.22 13.265C29.376 12.109 30 10.603 30 9s-.624-3.109-1.758-4.242C27.109 3.624 25.603 3 24 3s-3.109.624-4.242 1.758L7.194 18.147c-1.589 1.59-1.594 4.133-.035 5.693a3.965 3.965 0 0 0 2.823 1.166h.01a3.996 3.996 0 0 0 2.836-1.178l12.056-12.571 1.443 1.385-12.07 12.586a5.996 5.996 0 0 1-4.261 1.778h-.014a5.948 5.948 0 0 1-4.237-1.752c-2.34-2.339-2.334-6.152.013-8.498L18.321 3.367C19.854 1.833 21.862 1 24 1s4.146.833 5.656 2.344C31.168 4.854 32 6.863 32 9s-.832 4.146-2.344 5.657l-12.563 13.39A9.949 9.949 0 0 1 10 31z"/></symbol><symbol viewBox="0 0 32 32" id="Pause"><path d="M16 32C7.178 32 0 24.822 0 16S7.178 0 16 0s16 7.178 16 16-7.178 16-16 16zm0-30C8.28 2 2 8.28 2 16s6.28 14 14 14 14-6.28 14-14S23.72 2 16 2z"/><path d="M13 11h2v10h-2V11zM17 11h2v10h-2V11z"/></symbol><symbol viewBox="0 0 32 32" id="Pen"><path d="M10.311 20.772l1.373 1.453-8.998 8.502-1.373-1.453 8.998-8.502z"/><path d="M13 23.502c-2.206 0-4-1.794-4-4s1.794-4 4-4 4 1.794 4 4-1.794 4-4 4zm0-6c-1.103 0-2 .897-2 2s.897 2 2 2 2-.897 2-2-.897-2-2-2zM23.001 16.501a7.949 7.949 0 0 1-5.657-2.344 7.949 7.949 0 0 1-2.345-5.656 7.95 7.95 0 0 1 2.345-5.658l2.732-2.76 11.339 11.323-2.758 2.752a7.95 7.95 0 0 1-5.656 2.343zM20.084 2.917l-1.323 1.336a5.969 5.969 0 0 0-1.762 4.248c0 1.603.625 3.108 1.759 4.242a5.962 5.962 0 0 0 4.243 1.758 5.964 5.964 0 0 0 4.243-1.758l1.34-1.337-8.5-8.489z"/><path d="M.853 31.229l2.212-19.353 9.449-5.25.972 1.748-8.551 4.75-1.788 15.647 17.115-3.152 2.801-7.471 1.874.704-3.199 8.529z"/></symbol><symbol viewBox="0 0 32 32" id="Pencil"><path d="M29.536 10.95l-8.484-8.485.707-.707C22.892.624 24.399 0 26.001 0s3.109.624 4.242 1.758a6.007 6.007 0 0 1 0 8.485l-.707.707zm-5.568-8.396l5.479 5.479a4.009 4.009 0 0 0-.618-4.86c-1.271-1.272-3.357-1.513-4.861-.619zM20.873 3.5l6 9.984-1.713 1.03-6-9.984 1.713-1.03zM.59 31.405l2.979-11.166 1.932.516-2.091 7.84 7.862-2.071.51 1.934zM13.408 27.006l-2.356-6.041-6.041-2.361L17.426 6.075l1.421 1.408L8.575 17.85l4.022 1.572 1.565 4.014 8.34-8.293 1.41 1.418z"/></symbol><symbol viewBox="0 0 32 32" id="Phone"><path d="M26 8H6V0h20v8zM8 6h16V2H8v4zM26 32H6V9.952h2V30h16V9.952h2z"/><path d="M15 26h2v2h-2v-2zM14 3h4v2h-4V3zM7 22h18v2H7v-2z"/></symbol><symbol viewBox="0 0 32 32" id="Phone2"><path d="M20.908 32.256c-4.721 0-9.987-2.272-14.259-6.534C-.181 18.91-2.033 9.431 2.342 3.674l1.592 1.21C.225 9.767 2.037 18.298 8.062 24.307c6.013 6 14.438 7.7 19.178 3.869l1.258 1.556c-2.109 1.703-4.751 2.524-7.59 2.524z"/><path d="M30.292 27.39l-7.559-7.583-1.359 1.363a7.512 7.512 0 0 1-5.357 2.228 7.51 7.51 0 0 1-5.359-2.228c-2.953-2.96-2.953-7.779 0-10.742l1.363-1.367-7.563-7.589L5.874.06l8.971 9-2.771 2.779a5.616 5.616 0 0 0 0 7.918 5.529 5.529 0 0 0 3.943 1.64 5.526 5.526 0 0 0 3.94-1.639l2.776-2.784 8.975 9.004-1.416 1.412z"/></symbol><symbol viewBox="0 0 32 32" id="PicnicBasket"><path d="M29.867 30H2.133L.01 15.142l1.98-.284L3.867 28h24.266l1.877-13.142 1.98.284zM0 11h32v2H0v-2z"/><path d="M12.986 17.836l1 6-1.973.329-1-6 1.973-.329zM19.011 17.836l1.973.328-.998 6-1.973-.328.998-6zM22.18 1.427l1.639 1.147-6.998 10.002-1.639-1.147L22.18 1.427z"/></symbol><symbol viewBox="0 0 32 32" id="Picture"><path d="M32 29H0V3h32v26zM2 27h28V5H2v22z"/><path d="M20.263 25.676L9.97 14.447l-5.233 5.259-1.418-1.412 6.711-6.741 11.707 12.771z"/><path d="M27.293 22.707l-4.266-4.265-3.76 4.061-1.467-1.359 5.173-5.586 5.734 5.735zM18 15c-1.654 0-3-1.346-3-3s1.346-3 3-3 3 1.346 3 3-1.346 3-3 3zm0-4a1 1 0 0 0 0 2 1.001 1.001 0 0 0 0-2z"/></symbol><symbol viewBox="0 0 32 32" id="Pill"><path d="M25.535 19.193l-1.414-1.414 3.829-3.829c2.729-2.729 2.729-7.171 0-9.9s-7.17-2.729-9.899 0l-3.829 3.829-1.414-1.414 3.829-3.829c3.509-3.51 9.219-3.51 12.728 0 3.509 3.509 3.509 9.22 0 12.729l-3.83 3.828zM9.001 32a8.94 8.94 0 0 1-6.364-2.636c-3.509-3.51-3.509-9.221 0-12.729l7.766-7.764 12.762 12.693-7.8 7.8A8.94 8.94 0 0 1 9.001 32zm1.406-20.305l-6.355 6.354c-2.729 2.729-2.729 7.171 0 9.901C5.374 29.272 7.131 30 9.001 30s3.627-.728 4.95-2.05l6.382-6.382-9.926-9.873z"/></symbol><symbol viewBox="0 0 32 32" id="Pizza"><path d="M19.921 28.39l-1.842-.78L28.118 3.882 4.39 13.921l-.78-1.842L31.882.118zM19 32C8.523 32 0 23.477 0 13h2c0 9.374 7.626 17 17 17v2z"/><path d="M10 21c-2.206 0-4-1.794-4-4s1.794-4 4-4 4 1.794 4 4-1.794 4-4 4zm0-6c-1.103 0-2 .897-2 2s.897 2 2 2 2-.897 2-2-.897-2-2-2zM19 17c-1.654 0-3-1.346-3-3s1.346-3 3-3 3 1.346 3 3-1.346 3-3 3zm0-4a1.001 1.001 0 0 0 0 2 1.001 1.001 0 0 0 0-2zM15 27c-1.654 0-3-1.346-3-3s1.346-3 3-3 3 1.346 3 3-1.346 3-3 3zm0-4c-.551 0-1 .449-1 1s.449 1 1 1 1-.449 1-1-.449-1-1-1z"/></symbol><symbol viewBox="0 0 32 32" id="Plaine"><path d="M21.479 31.777L13 24.142v2.492l.323-.313 1.393 1.434L11 31.366V19.649l9.521 8.574 7.907-24.599-24.582 8.779 5.276 5.142 10.185-7.71 1.207 1.595-11.556 8.748-8.804-8.581L31.572.376z"/></symbol><symbol viewBox="0 0 32 32" id="Planet"><path d="M16 25.945c-6.065 0-11-4.935-11-11s4.935-11 11-11 11 4.935 11 11-4.935 11-11 11zm0-20c-4.963 0-9 4.037-9 9s4.037 9 9 9 9-4.037 9-9-4.037-9-9-9z"/><path d="M1.694 30.897c-.493 0-.903-.138-1.206-.44-.808-.809-1.155-2.497 3.358-8.432l1.592 1.211c-2.691 3.539-3.28 5.119-3.405 5.695 1.783-.319 7.907-4.548 15.656-12.297C25.439 8.884 29.668 2.759 29.986.977c-.583.126-2.195.728-5.828 3.508l-1.215-1.588c6.041-4.625 7.753-4.282 8.569-3.463 2.953 2.953-9.818 16.024-12.409 18.614-2.324 2.325-13.089 12.849-17.409 12.849z"/></symbol><symbol viewBox="0 0 32 32" id="Plaster"><path d="M14.705 25.877l-8.484-8.485L17.392 6.221l8.485 8.484-11.172 11.172zm-5.656-8.485l5.656 5.657 8.344-8.344-5.657-5.656-8.343 8.343zM6 32a5.96 5.96 0 0 1-4.242-1.758 6.006 6.006 0 0 1-.001-8.485L4.516 19l1.414 1.414-2.758 2.757A3.971 3.971 0 0 0 2 25.999c0 1.069.417 2.073 1.172 2.829A3.974 3.974 0 0 0 6 30a3.973 3.973 0 0 0 2.828-1.172l2.758-2.758L13 27.484l-2.758 2.758A5.956 5.956 0 0 1 6 32zM27.484 12.999l-1.414-1.414 2.758-2.756A3.971 3.971 0 0 0 30 6.001a3.983 3.983 0 0 0-1.172-2.829c-1.513-1.513-4.146-1.512-5.656 0L20.414 5.93 19 4.516l2.758-2.758A5.956 5.956 0 0 1 26 0a5.96 5.96 0 0 1 4.242 1.758A5.966 5.966 0 0 1 32 6c0 1.604-.624 3.11-1.758 4.243l-2.758 2.756z"/><path d="M12 15.586L13.414 17 12 18.414 10.586 17 12 15.586zM16 14.586L17.414 16 16 17.414 14.586 16 16 14.586zM17 10.586L18.414 12 17 13.414 15.586 12 17 10.586zM15 18.586L16.414 20 15 21.414 13.586 20 15 18.586zM20 13.586L21.414 15 20 16.414 18.586 15 20 13.586z"/></symbol><symbol viewBox="0 0 32 32" id="Play"><path d="M16 32C7.178 32 0 24.822 0 16S7.178 0 16 0s16 7.178 16 16-7.178 16-16 16zm0-30C8.28 2 2 8.28 2 16s6.28 14 14 14 14-6.28 14-14S23.72 2 16 2z"/><path d="M12 22.805V14h2v5.195l5.032-3.144-7.518-4.177.972-1.748 10.482 5.823z"/></symbol><symbol viewBox="0 0 32 32" id="Podium"><path d="M22 23.985h-2v-15h-8v15h-2v-17h12z"/><path d="M32 30.985H0v-18h8v2H2v14h28v-10h-6v-2h8zM15 .985h2v4h-2v-4zM2 6.985h2v4H2v-4zM6 6.985h2v4H6v-4zM24 10.985h2v4h-2v-4zM27 10.985h2v4h-2v-4zM30 10.985h2v4h-2v-4z"/></symbol><symbol viewBox="0 0 32 32" id="Pointer"><path d="M8.215 19.126c-4.277-4.366-4.277-11.47 0-15.836C10.294 1.168 13.059 0 16 0h.001c2.941 0 5.706 1.169 7.784 3.291 4.276 4.366 4.276 11.47.001 15.836l-1.43-1.399c3.521-3.594 3.521-9.443 0-13.037C20.658 2.955 18.4 2 16.001 2H16c-2.399 0-4.657.956-6.357 2.69-3.521 3.594-3.521 9.443 0 13.037l-1.428 1.399zM16 31.887l-5.848-9.357 1.696-1.06L16 28.113l4.152-6.643 1.696 1.06z"/><path d="M16 17c-3.309 0-6-2.691-6-6s2.691-6 6-6 6 2.691 6 6-2.691 6-6 6zm0-10c-2.206 0-4 1.794-4 4s1.794 4 4 4 4-1.794 4-4-1.794-4-4-4z"/></symbol><symbol viewBox="0 0 32 32" id="Pool"><path d="M16 32C7.178 32 0 24.822 0 16S7.178 0 16 0s16 7.178 16 16-7.178 16-16 16zm0-30C8.28 2 2 8.28 2 16s6.28 14 14 14 14-6.28 14-14S23.72 2 16 2z"/><path d="M16 26c-5.514 0-10-4.486-10-10S10.486 6 16 6s10 4.486 10 10-4.486 10-10 10zm0-18c-4.411 0-8 3.589-8 8s3.589 8 8 8 8-3.589 8-8-3.589-8-8-8z"/><path d="M16 17c-1.93 0-3.5-1.57-3.5-3.5S14.07 10 16 10s3.5 1.57 3.5 3.5S17.93 17 16 17zm0-5c-.827 0-1.5.673-1.5 1.5S15.173 15 16 15s1.5-.673 1.5-1.5S16.827 12 16 12z"/><path d="M16 22c-1.93 0-3.5-1.57-3.5-3.5S14.07 15 16 15s3.5 1.57 3.5 3.5S17.93 22 16 22zm0-5c-.827 0-1.5.673-1.5 1.5S15.173 20 16 20s1.5-.673 1.5-1.5S16.827 17 16 17z"/></symbol><symbol viewBox="0 0 32 32" id="PowerOff"><path d="M16 32C8.28 32 2 25.72 2 18c0-5.771 3.461-10.876 8.816-13.004l.738 1.857C6.966 8.678 4 13.053 4 18c0 6.617 5.383 12 12 12s12-5.383 12-12c0-4.946-2.966-9.321-7.555-11.146l.738-1.857C26.539 7.125 30 12.229 30 18c0 7.72-6.28 14-14 14z"/><path d="M15.999 13.002a2.98 2.98 0 0 1-2.123-.881A2.98 2.98 0 0 1 13 10V3.002c-.001-.8.311-1.554.878-2.121S15.198 0 15.999 0A3.004 3.004 0 0 1 19 3v7c0 1.653-1.347 3-3.001 3.002zM16 2c-.267 0-.518.105-.707.295S15 2.734 15 3v7c0 .268.104.518.292.707a.993.993 0 0 0 .706.295A1.004 1.004 0 0 0 17 10V3c0-.551-.448-1-1-1z"/></symbol><symbol viewBox="0 0 32 32" id="Printer"><path d="M32 26h-6v-2h4V8H2v16h4v2H0V6h32z"/><path d="M24 32H8V20h2v10h12V20h2zM4 10h2v2H4v-2zM8 10h2v2H8v-2zM23.999 4h-2V2h-12v2h-2V0h16z"/><path d="M12 26h9v2h-9v-2zM12 22h9v2h-9v-2z"/></symbol><symbol viewBox="0 0 32 32" id="Pulse"><path d="M29.767 15.657l-1.533-1.283A7.725 7.725 0 0 0 30 9.5C30 5.364 26.636 2 22.5 2a7.474 7.474 0 0 0-5.735 2.645L16 5.552l-.765-.907A7.474 7.474 0 0 0 9.5 2C5.364 2 2 5.364 2 9.5c0 1.755.644 3.531 1.767 4.874l-1.534 1.283A9.61 9.61 0 0 1 0 9.5C0 4.262 4.262 0 9.5 0c2.442 0 4.756.918 6.5 2.55A9.492 9.492 0 0 1 22.5 0C27.738 0 32 4.262 32 9.5a9.61 9.61 0 0 1-2.233 6.157z"/><path d="M15.161 23.581L11.84 16.39 10.641 19H0v-2h9.359l2.475-5.394 3.091 6.694 4.039-11.306L22.657 17H32v2H21.263l-2.268-6.146z"/><path d="M17.465 32h-2.93l-8.299-9.84 1.528-1.289L15.465 30h1.07l7.7-9.129 1.53 1.289z"/></symbol><symbol viewBox="0 0 32 32" id="Puzzle"><path d="M24.588 22.97l-1.414-1.414 3.535-3.535-4.244-4.244 1.414-1.414 5.658 5.658zM15.395 32.162L-.162 16.605 13.98 2.464l5.657 5.656-1.414 1.414-4.243-4.242L2.666 16.605l12.729 12.729 3.535-3.536 1.414 1.414zM25.988 11.998c-.277 0-.556-.02-.833-.059l.279-1.98a4.016 4.016 0 0 0 3.396-1.132c.755-.755 1.171-1.759 1.171-2.828s-.416-2.073-1.171-2.828c-1.511-1.512-4.147-1.51-5.658 0a4.03 4.03 0 0 0-1.131 3.396l-1.98.278a6.038 6.038 0 0 1 1.697-5.088C22.892.624 24.398 0 26.002 0s3.11.625 4.242 1.757a6.006 6.006 0 0 1 0 8.484 6.036 6.036 0 0 1-4.256 1.757z"/><path d="M16.822 25.433a6.04 6.04 0 0 1-4.256-1.756 6.007 6.007 0 0 1 0-8.485 6.006 6.006 0 0 1 8.484 0 6.035 6.035 0 0 1 1.697 5.091l-1.98-.281a4.022 4.022 0 0 0-1.131-3.396 4.003 4.003 0 0 0-5.656 0 4.004 4.004 0 0 0 0 5.657 4.03 4.03 0 0 0 3.396 1.131l.279 1.98a5.972 5.972 0 0 1-.833.059z"/></symbol><symbol viewBox="0 0 32 32" id="Radio"><path d="M32 32H0V8h32v24zM2 30h28V10H2v20z"/><path d="M11 27c-3.859 0-7-3.14-7-7s3.141-7 7-7 7 3.14 7 7-3.141 7-7 7zm0-12c-2.757 0-5 2.243-5 5s2.243 5 5 5 5-2.243 5-5-2.243-5-5-5z"/><path d="M10 20H8c0-1.654 1.346-3 3-3v2c-.552 0-1 .449-1 1zM20 15h8v2h-8v-2zM20 19h8v2h-8v-2zM20 23h8v2h-8v-2zM23.639.066l.723 1.865-12.999 5.037-.723-1.865L23.639.066z"/></symbol><symbol viewBox="0 0 32 32" id="Restart"><path d="M16.01 31.978c-4.154 0-8.284-1.593-11.355-4.664C-1.229 21.43-1.66 12.175 3.65 5.785l1.539 1.277C.543 12.654.92 20.751 6.068 25.899c4.6 4.601 11.916 5.411 17.396 1.929l1.072 1.688a15.887 15.887 0 0 1-8.526 2.462z"/><path d="M6 11H4V7H0V5h6zM28.349 26.215l-1.537-1.279c4.646-5.59 4.269-13.688-.88-18.835-4.601-4.6-11.915-5.41-17.396-1.929L7.464 2.484C13.728-1.495 22.09-.569 27.346 4.686c5.883 5.884 6.314 15.139 1.003 21.529z"/><path d="M32 27h-6v-6h2v4h4z"/></symbol><symbol viewBox="0 0 32 32" id="Resume"><path d="M30 32H2V6h2v24h24V2H8V0h22z"/><path d="M7 22h18v2H7v-2zM7 26h18v2H7v-2zM16 12c-2.206 0-4-1.793-4-3.998C12 5.795 13.794 4 16 4s4 1.795 4 4.002A4.003 4.003 0 0 1 16 12zm0-6a2 2 0 1 0 2 2.002A2.003 2.003 0 0 0 16 6zM22.214 20H9.792l1.331-6.999 2.529-.938.696 1.875-1.471.545L12.208 18h7.578l-.667-3.425-1.516-.658.794-1.834 2.484 1.075z"/></symbol><symbol viewBox="0 0 32 32" id="Ringer"><path d="M18.842.03l.318 1.975-6.001.968-.318-1.975L18.842.03zM27.18 27H4.82L7 13.885C7.046 8.978 11.065 5 16 5s8.954 3.973 9 8.875L27.18 27zm-20-2h17.64L23 13.959C23 10.122 19.859 7 16 7s-7 3.127-7 6.97l-.014.164L7.18 25z"/><path d="M11.991 22.131l-1.982-.262.991-7.89C11 11.233 13.243 9 16 9v2c-1.654 0-3 1.336-3 2.979l-.009.579-1 7.573zM16 32c-1.654 0-3-1.346-3-3h2a1.001 1.001 0 0 0 2 0h2c0 1.654-1.346 3-3 3z"/></symbol><symbol viewBox="0 0 32 32" id="Rolodex"><path d="M11 17c-2.757 0-5-2.242-5-4.998C6 9.244 8.243 7 11 7s5 2.244 5 5.002A5.005 5.005 0 0 1 11 17zm0-8c-1.654 0-3 1.347-3 3.002C8 13.655 9.346 15 11 15s3-1.345 3-2.998A3.005 3.005 0 0 0 11 9zM16.013 25.162l-.886-5.403-2.441-.808.628-1.898 3.59 1.188 1.082 6.597zM5.987 25.162l-1.974-.324 1.083-6.597 3.59-1.188.628 1.898-2.441.808zM20 9h4v2h-4V9zM20 13h8v2h-8v-2zM20 17h8v2h-8v-2zM20 21h8v2h-8v-2zM11 27h10v2H11v-2z"/><path d="M32 29h-9v-2h7V5H2v22h7v2H0V3h32z"/></symbol><symbol viewBox="0 0 32 32" id="Scisors"><path d="M9 32c-3.309 0-6-2.691-6-6s2.691-6 6-6 6 2.691 6 6-2.691 6-6 6zm0-10c-2.206 0-4 1.794-4 4s1.794 4 4 4 4-1.794 4-4-1.794-4-4-4zM23 32c-3.309 0-6-2.691-6-6s2.691-6 6-6 6 2.691 6 6-2.691 6-6 6zm0-10c-2.206 0-4 1.794-4 4s1.794 4 4 4 4-1.794 4-4-1.794-4-4-4zM8.843.462l7 10.984-1.687 1.075-7-10.984L8.843.462zM23.154.47l1.695 1.061-6.877 10.983-1.695-1.061L23.154.47zM16 20c-1.654 0-3-1.346-3-3s1.346-3 3-3 3 1.346 3 3-1.346 3-3 3zm0-4c-.551 0-1 .449-1 1s.449 1 1 1 1-.448 1-1-.449-1-1-1z"/></symbol><symbol viewBox="0 0 32 32" id="Screwdriver"><path d="M27.879 7.121a2.984 2.984 0 0 1-2.122-.879 2.984 2.984 0 0 1-.878-2.12c0-.802.313-1.556.879-2.122L27.172.586l4.242 4.242L30 6.242a2.976 2.976 0 0 1-2.121.879zm-.707-3.707a.996.996 0 0 0 0 1.414 1.02 1.02 0 0 0 1.413 0h.001l-1.414-1.414z"/><path d="M25.758 4.828l1.414 1.414-10.465 10.465-1.414-1.414L25.758 4.828zM11.758 18.828l1.414 1.414-7.465 7.465-1.414-1.414 7.465-7.465z"/><path d="M5 32c-1.336 0-2.59-.52-3.532-1.462A4.97 4.97 0 0 1 0 27.008a4.954 4.954 0 0 1 1.461-3.533l9.084-9.084 1.414 1.414-9.084 9.084A2.966 2.966 0 0 0 2 27.004c.001.801.314 1.553.882 2.119a3.007 3.007 0 0 0 4.249-.006l9.071-9.07 1.414 1.414-9.071 9.071A4.98 4.98 0 0 1 5.007 32H5zM13.707 11.221l7.071 7.071-1.414 1.414-7.071-7.071 1.414-1.414z"/></symbol><symbol viewBox="0 0 32 32" id="Search"><path d="M13 26C5.832 26 0 20.168 0 13S5.832 0 13 0s13 5.832 13 13-5.832 13-13 13zm0-24C6.935 2 2 6.935 2 13s4.935 11 11 11 11-4.935 11-11S19.065 2 13 2zM29.001 32a2.988 2.988 0 0 1-2.121-.877l-5.576-5.405 1.393-1.436 5.587 5.416c.4.401 1.036.4 1.425.011.187-.188.291-.44.291-.709s-.104-.519-.292-.707l-5.426-5.598 1.436-1.392 5.415 5.586c.555.555.867 1.309.867 2.111s-.312 1.556-.877 2.122a2.989 2.989 0 0 1-2.122.878z"/><path d="M7.348 18.654c-3.119-3.118-3.119-8.192 0-11.313l1.414 1.414a6.006 6.006 0 0 0 0 8.484l-1.414 1.415z"/></symbol><symbol viewBox="0 0 32 32" id="Seringe"><path d="M2.747 27.839l1.414 1.414-2.454 2.454-1.414-1.414 2.454-2.454zM27.131 3.454l1.414 1.414-4.828 4.828-1.414-1.414 4.828-4.828z"/><path d="M26.707.292l5 5-1.414 1.414-5-5L26.707.292zM13.242 27.242l-1.414-1.414 11.07-11.071L17.242 9.1 6.171 20.171l-1.414-1.414L17.242 6.271l8.485 8.486z"/><path d="M8.312 18.028l1.658 1.657L8.557 21.1l-1.658-1.657 1.413-1.415zM11.312 15.028l1.658 1.657-1.413 1.415-1.658-1.657 1.413-1.415zM14.312 12.028l1.658 1.656-1.413 1.415-1.658-1.656 1.413-1.415zM8.999 28.996a5.976 5.976 0 0 1-4.242-1.754 6.007 6.007 0 0 1 0-8.485l1.414 1.414c-1.559 1.56-1.559 4.098 0 5.657s4.096 1.559 5.657 0l1.414 1.414a5.98 5.98 0 0 1-4.243 1.754z"/></symbol><symbol viewBox="0 0 32 32" id="Settings"><path d="M15.981 20.999h-.018a4.971 4.971 0 0 1-3.531-1.477 4.966 4.966 0 0 1-1.452-3.54 5.01 5.01 0 0 1 5-4.983 4.975 4.975 0 0 1 3.549 1.478 4.965 4.965 0 0 1 1.451 3.539 5.008 5.008 0 0 1-4.999 4.983zm.011-8a3.008 3.008 0 0 0-3.011 2.989 2.978 2.978 0 0 0 .872 2.125 2.983 2.983 0 0 0 2.118.886l.011 1v-1a3.005 3.005 0 0 0 2.999-2.989c.003-.803-.306-1.557-.871-2.125s-1.317-.883-2.118-.886z"/><path d="M19.363 32.012l-6.359-.023-1.23-4.663a11.951 11.951 0 0 1-3.368-1.819l-4.496 1.19-3.161-5.519L3.91 18.07a11.97 11.97 0 0 1-.186-2.116c.001-.555.046-1.123.131-1.697L.303 10.683l3.201-5.496 4.855 1.346a11.826 11.826 0 0 1 3.396-1.854l.103-.813 1.984.252-.267 2.098-.632.183a9.904 9.904 0 0 0-3.704 1.996l-.403.343-4.378-1.213-1.652 2.836 3.206 3.227-.101.52a9.852 9.852 0 0 0-.186 1.854c-.003.718.08 1.467.248 2.229l.119.54-2.841 2.792 1.632 2.849 4.002-1.06.398.334a9.953 9.953 0 0 0 3.603 1.938l.539.16 1.122 4.252 3.282.012 1.216-4.563.459-.188c.976-.4 1.885-.957 2.703-1.653l.404-.345 4.38 1.214 1.651-2.837-3.204-3.223.1-.52a10.18 10.18 0 0 0 .187-1.859 9.812 9.812 0 0 0-.115-1.456l-.073-.501 3.657-3.596-1.63-2.848L22.773 8.9l-.401-.357a9.976 9.976 0 0 0-2.809-1.777l-.457-.189-1.204-4.57-5.054-.015.006-2 6.591.021 1.346 5.111a11.92 11.92 0 0 1 2.496 1.572l5.25-1.389 3.159 5.518-4.042 3.975c.049.441.072.852.07 1.242a12.042 12.042 0 0 1-.133 1.7l3.552 3.573-3.2 5.497-4.856-1.347a11.948 11.948 0 0 1-2.362 1.439l-1.362 5.108z"/></symbol><symbol viewBox="0 0 32 32" id="Shaker"><path d="M22.674 31.974H9.326l-2.357-19.14 3.644-6.808h10.775l3.644 6.808-2.358 19.14zm-11.578-2h9.809l2.064-16.755-2.779-5.193h-8.38l-2.778 5.192 2.064 16.756z"/><path d="M13.197 15.546l1.284 11.369-1.988.224-1.284-11.369 1.988-.225zM21.367 4.026h-2v-2h-6.734v2h-2v-4h10.734zM11 12.026h10v2H11v-2z"/></symbol><symbol viewBox="0 0 32 32" id="Share"><path d="M5 21c-2.757 0-5-2.243-5-5s2.243-5 5-5 5 2.243 5 5-2.243 5-5 5zm0-8c-1.654 0-3 1.346-3 3s1.346 3 3 3 3-1.346 3-3-1.346-3-3-3zM27 11c-2.757 0-5-2.243-5-5s2.243-5 5-5 5 2.243 5 5-2.243 5-5 5zm0-8c-1.654 0-3 1.346-3 3s1.346 3 3 3 3-1.346 3-3-1.346-3-3-3zM27 31c-2.757 0-5-2.243-5-5s2.243-5 5-5 5 2.243 5 5-2.243 5-5 5zm0-8c-1.654 0-3 1.346-3 3s1.346 3 3 3 3-1.346 3-3-1.346-3-3-3zM19.553 8.105l.894 1.789-8 4-.894-1.789 8-4zM12.447 18.105l7.999 4-.894 1.789-8-4 .894-1.789z"/></symbol><symbol viewBox="0 0 32 32" id="Shield"><path d="M2.999 9h2v13h-2V9zM26.999 9h2v13h-2V9zM17.249 32h-2.5L5.38 26.992C3.161 25.664 2.999 24.212 2.999 22h2c0 2.028.129 2.538 1.499 3.33l.005.003L15.249 30h1.5l8.751-4.67c1.37-.792 1.499-1.302 1.499-3.33h2c0 2.212-.162 3.664-2.381 4.993l-.148.087L17.249 32zM8.999 16h14v2h-14v-2zM8.999 20h14v2h-14v-2zM8.999 12h7v2h-7v-2zM28.999 7h-7a7.003 7.003 0 0 1-6-3.397 7.003 7.003 0 0 1-6 3.397h-7V5h7c2.757 0 5-2.243 5-5h2c0 2.757 2.243 5 5 5h7v2z"/></symbol><symbol viewBox="0 0 32 32" id="ShoppingCart"><path d="M28.835 22H9.24l-5-18H1V2h4.76l5 18h16.405l1.637-9H13V9h18.198zM12 30c-1.654 0-3-1.346-3-3s1.346-3 3-3 3 1.346 3 3-1.346 3-3 3zm0-4a1.001 1.001 0 0 0 0 2 1.001 1.001 0 0 0 0-2zM25 30c-1.654 0-3-1.346-3-3s1.346-3 3-3 3 1.346 3 3-1.346 3-3 3zm0-4a1 1 0 1 0 0 2 1 1 0 0 0 0-2z"/><path d="M15 13h2v5h-2v-5zM21 13h2v5h-2v-5z"/></symbol><symbol viewBox="0 0 32 32" id="Signal"><path d="M16 32c-2.206 0-4-1.794-4-4s1.794-4 4-4 4 1.794 4 4-1.794 4-4 4zm0-6c-1.103 0-2 .897-2 2s.897 2 2 2 2-.897 2-2-.897-2-2-2zM9.217 20.62l-1.414-1.414c4.25-4.25 11.167-4.25 15.414 0l-1.414 1.414c-3.47-3.47-9.116-3.468-12.586 0zM26.293 14.173c-5.676-5.672-14.912-5.674-20.586 0l-1.414-1.414c6.454-6.453 16.956-6.453 23.414 0l-1.414 1.414z"/><path d="M30.293 7.918C22.41.041 9.586.041 1.707 7.918L.293 6.504c8.659-8.656 22.749-8.658 31.414 0l-1.414 1.414z"/></symbol><symbol viewBox="0 0 32 32" id="SimCard"><path d="M24 20H8V4h16v16zm-14-2h12V6H10v12z"/><path d="M10 8h4v2h-4V8zM10 13h4v2h-4v-2zM18 8h4v2h-4V8zM18 13h4v2h-4v-2z"/><path d="M21.414 32H4V0h24v25h-2V2H6v28h14.586l3.707-3.708 1.414 1.415z"/></symbol><symbol viewBox="0 0 32 32" id="Snikers"><path d="M32 22H0v-4.604l6.47-3.402.931 1.77L2 18.604V20h28V8h-9.279l-.773 2.316-1.896-.632L19.279 6H32z"/><path d="M8.586 10.413l4 4-1.414 1.414-4-4 1.414-1.414zM13.586 9.413l4 4-1.414 1.414-4-4 1.414-1.414zM0 24h32v2H0v-2z"/></symbol><symbol viewBox="0 0 32 32" id="Soccer"><path d="M19.204 21h-6.411l-1.96-6.236 5.171-3.859 5.163 3.904L19.204 21zm-4.942-2h3.478l1.094-3.448-2.837-2.146-2.829 2.111L14.262 19zM15.992 9.179l-4.573-3.265 1.162-1.628 3.427 2.446 3.421-2.379 1.142 1.642zM27.59 16.331l-4.943-2.582.775-5.566 1.98.275-.579 4.171 3.693 1.93zM20.516 28.307l-1.891-.651 1.813-5.273 5.622-.067.023 2-4.211.051zM4.033 16.331l-.926-1.772 3.693-1.93-.579-4.171 1.98-.275.775 5.566zM11.107 28.307l-1.356-3.94-4.211-.051.023-2 5.622.067 1.813 5.273z"/><path d="M16 32C7.178 32 0 24.822 0 16S7.178 0 16 0s16 7.178 16 16-7.178 16-16 16zm0-30C8.28 2 2 8.28 2 16s6.28 14 14 14 14-6.28 14-14S23.72 2 16 2z"/></symbol><symbol viewBox="0 0 32 32" id="Soda"><path d="M13 32c-2.757 0-5-2.243-5-5V12c0-4.411 3.589-8 8-8s8 3.589 8 8v15a5.005 5.005 0 0 1-5 4.999L13 32zm3-26c-3.309 0-6 2.691-6 6v15c0 1.654 1.346 3 3 3l6-.001c1.654 0 3-1.346 3-3V12c0-3.309-2.691-6-6-6z"/><path d="M13.996 27l-2-.001L12 12c0-2.205 1.794-4 4-4v2c-1.103 0-2 .897-2 2l-.004 15zM13 0h6v2h-6V0z"/></symbol><symbol viewBox="0 0 32 32" id="SodaCan"><path d="M21.818 32H10.14L6.787 13h18.384l-3.353 19zm-10-2h8.322l2.647-15H9.171l2.647 15z"/><path d="M13.913 17.844l1.41 9-1.976.31-1.41-9 1.976-.31zM24.979 11h-2c0-.946-.185-1.863-.55-2.726l1.842-.779c.47 1.11.708 2.289.708 3.505zM8.979 11h-2c0-4.962 4.038-9 9-9a8.95 8.95 0 0 1 3.457.688l-.768 1.847A7.008 7.008 0 0 0 8.979 11z"/><path d="M12.979 11h-2c0-2.757 2.243-5 5-5v2c-1.654 0-3 1.346-3 3zM23.164.483l1.712 1.034-6.042 10-1.712-1.034 6.042-10z"/></symbol><symbol viewBox="0 0 32 32" id="Speaker"><path d="M29.5 32h-27V0h27v32zm-25-2h23V2h-23v28z"/><path d="M15.5 28c-4.411 0-8-3.589-8-8s3.589-8 8-8 8 3.589 8 8-3.589 8-8 8zm0-14c-3.309 0-6 2.691-6 6s2.691 6 6 6 6-2.691 6-6-2.691-6-6-6zM15.5 10c-1.654 0-3-1.346-3-3s1.346-3 3-3 3 1.346 3 3-1.346 3-3 3zm0-4a1.001 1.001 0 0 0 0 2 1.001 1.001 0 0 0 0-2z"/><path d="M13.5 20h-2c0-2.206 1.794-4 4-4v2c-1.103 0-2 .897-2 2z"/></symbol><symbol viewBox="0 0 32 32" id="Speaker2"><path d="M32 32H0V0h32v32zM2 30h28V2H2v28z"/><path d="M16 27C9.935 27 5 22.065 5 16S9.935 5 16 5s11 4.935 11 11-4.935 11-11 11zm0-20c-4.962 0-9 4.037-9 9s4.038 9 9 9 9-4.037 9-9-4.038-9-9-9z"/><path d="M13 16h-2c0-2.757 2.243-5 5-5v2c-1.654 0-3 1.346-3 3zM26 4h2v2h-2V4zM4 4h2v2H4V4zM26 26h2v2h-2v-2zM4 26h2v2H4v-2z"/></symbol><symbol viewBox="0 0 32 32" id="Speedometter"><path d="M15 4h2v4h-2V4zM24 15h4v2h-4v-2zM4 15h4v2H4v-2zM8.223 6.807l2.828 2.828-1.414 1.414-2.828-2.828 1.414-1.414zM23.787 6.801l1.4 1.428-8.848 8.678-1.4-1.428 8.848-8.678z"/><path d="M16 32C7.178 32 0 24.822 0 16S7.178 0 16 0c3.884 0 7.624 1.406 10.53 3.959l-1.32 1.502A13.945 13.945 0 0 0 16 2C8.28 2 2 8.28 2 16s6.28 14 14 14 14-6.28 14-14c0-3.397-1.229-6.668-3.461-9.211l1.502-1.318A15.94 15.94 0 0 1 32 16c0 8.822-7.178 16-16 16z"/><path d="M10.928 25.799L9.232 24.74A7.927 7.927 0 0 1 16 21c2.777 0 5.308 1.398 6.769 3.74l-1.697 1.059A5.936 5.936 0 0 0 16 23a5.941 5.941 0 0 0-5.072 2.799z"/></symbol><symbol viewBox="0 0 32 32" id="Star"><path d="M12.399 14H0v-2h10.991L15.059.662l1.882.676zM27.931 31.308L16 24.232 4.069 31.308l4.328-11.575-5.834-2.834.874-1.798 7.47 3.628-2.976 7.963L16 21.907l8.069 4.785-2.976-7.963 7.47-3.628.874 1.798-5.834 2.834zM32 14H18.24l-2.203-7.903 1.926-.537L19.76 12H32z"/></symbol><symbol viewBox="0 0 32 32" id="Starship"><path d="M23.514 16.971L22.1 15.557 30 7.658V2h-5.658l-7.899 7.9-1.414-1.414L23.514 0H32v8.486zM18.141 28.826L3.174 13.859l10.269-3.651.67 1.885-7.287 2.591 10.49 10.49 2.591-7.286 1.885.67zM.029 31.971l5.07-11.399 1.828.813-2.956 6.644 6.645-2.955.813 1.828z"/><path d="M16.276 14.287l1.437 1.391-5.549 5.735-1.437-1.391 5.548-5.735z"/></symbol><symbol viewBox="0 0 32 32" id="Starship2"><path d="M21 32H11V10h2v20h6V10h2zM29 28h-6v-2h4v-3.678l-4.815-7.798 1.701-1.05L29 21.754zM9 28H3v-6.246l5.114-8.28 1.701 1.05L5 22.322V26h4z"/><path d="M15 14h2v14h-2V14zM19.219 7.625L16 3.601l-3.219 4.024-1.562-1.25L16 .399l4.781 5.976z"/></symbol><symbol viewBox="0 0 32 32" id="Stop"><path d="M16 32C7.178 32 0 24.822 0 16S7.178 0 16 0s16 7.178 16 16-7.178 16-16 16zm0-30C8.28 2 2 8.28 2 16s6.28 14 14 14 14-6.28 14-14S23.72 2 16 2z"/><path d="M22 22H10v-8h2v6h10zM22 18h-2v-6H10v-2h12z"/></symbol><symbol viewBox="0 0 32 32" id="StorageBox"><path d="M31.999 14h-32V2h32v12zm-30-2h28V4h-28v8zM28.999 30h-26V15h2v13h22V15h2z"/><path d="M23.999 22h-16v-6h2v4h12v-4h2z"/></symbol><symbol viewBox="0 0 32 32" id="TV"><path d="M32 32H0V8h32v24zM2 30h28V10H2v20z"/><path d="M24 28H4V12h20v16zM6 26h16V14H6v12zM26 22h2v2h-2v-2zM26 26h2v2h-2v-2zM16 7.215L7.468 1.846 8.532.154 16 4.852 23.468.154l1.064 1.692z"/></symbol><symbol viewBox="0 0 32 32" id="Tablet"><path d="M32 28H4.001v-2H30V6H4.001V4H32zM0 4h2v24H0V4z"/><path d="M26 15h2v2h-2v-2zM24 24H4V8h20v16zM6 22h16V10H6v12z"/></symbol><symbol viewBox="0 0 32 32" id="Tag"><path d="M16 31.414L.586 16 14.293 2.293l1.414 1.414L3.414 16 16 28.586l12.293-12.293 1.414 1.414zM32 15h-2V2H17V0h15z"/><path d="M22.002 15h-.031A5.008 5.008 0 0 1 17 9.971 5.01 5.01 0 0 1 21.998 5c2.788.018 5.018 2.273 5.002 5.029A5.01 5.01 0 0 1 22.002 15zm.016-8A3.01 3.01 0 0 0 19 9.982 3.004 3.004 0 0 0 21.982 13l.02 1v-1A3.006 3.006 0 0 0 25 10.018 3.003 3.003 0 0 0 22.018 7z"/></symbol><symbol viewBox="0 0 32 32" id="TeaMug"><path d="M12.994 24.025c-7.168 0-13-6-13-13.374V4.025h26v6.626c0 7.375-5.831 13.374-13 13.374zm-11-18v4.626c0 6.271 4.935 11.374 11 11.374s11-5.103 11-11.374V6.025h-22z"/><path d="M13.006 20.025c-4.962 0-9-4.205-9-9.374V9.025h2v1.626c0 4.066 3.14 7.374 7 7.374v2zM29.006 14.025h-1.038v-2h1.038c.551 0 1-.449 1-1v-2c0-.551-.449-1-1-1h-1.038v-2h1.038c1.654 0 3 1.346 3 3v2.025a3.004 3.004 0 0 1-3 2.975zM4.994 25.975h16v2h-16v-2z"/></symbol><symbol viewBox="0 0 32 32" id="Telesocpe"><path d="M14.012 16.849l1.977.305-2.005 12.999-1.977-.305 2.005-12.999zM18.98 14.803l3 15-1.961.392-3-15 1.961-.392zM5.693 18.279l-2.737-7.517L24.753 2.93l2.736 7.519-21.796 7.83zm-.171-6.313l1.369 3.759 18.032-6.479-1.368-3.759-18.033 6.479zM29.367 9.759l-.683-1.879c.501-.183.902-.55 1.128-1.034s.25-1.027.067-1.527a1.985 1.985 0 0 0-1.034-1.13 1.984 1.984 0 0 0-1.529-.067l-.684-1.879a3.972 3.972 0 0 1 3.058.133 3.971 3.971 0 0 1 2.068 2.259 3.97 3.97 0 0 1-.134 3.057 3.973 3.973 0 0 1-2.257 2.067zM3.004 18.228a3.005 3.005 0 0 1-2.822-1.974 3.003 3.003 0 0 1 1.793-3.845l.684 1.879a.992.992 0 0 0-.563.518.995.995 0 0 0-.034.765c.189.518.764.783 1.282.598l.684 1.879c-.339.122-.684.18-1.024.18z"/></symbol><symbol viewBox="0 0 32 32" id="TennisBall"><path d="M16 32C7.178 32 0 24.822 0 16S7.178 0 16 0s16 7.178 16 16-7.178 16-16 16zm0-30C8.28 2 2 8.28 2 16s6.28 14 14 14 14-6.28 14-14S23.72 2 16 2z"/><path d="M17 28h-2c0-6.065-4.935-11-11-11v-2c7.168 0 13 5.832 13 13zM28 17c-7.168 0-13-5.832-13-13h2c0 6.065 4.935 11 11 11v2z"/></symbol><symbol viewBox="0 0 32 32" id="Tie"><path d="M21.781 10H11.219l-2.5-10h15.562l-2.5 10zm-9-2h7.438l1.5-6H11.281l1.5 6zM16 32.152l-8.122-4.641 3.142-15.707 1.96.392-2.858 14.293L16 29.848l5.92-3.383-1.911-14.333 1.982-.264 2.089 15.667z"/><path d="M18.835 20.014l.329 1.973-6 1.001-.329-1.973 6-1.001zM18.835 24.015l.329 1.973-6 1.001-.329-1.973 6-1.001zM18.835 16.014l.329 1.973-6 1.001-.329-1.973 6-1.001z"/></symbol><symbol viewBox="0 0 32 32" id="Time"><path d="M22.376 23.431L15 16.272V5.85h2v9.577l6.769 6.568zM16.078 31.84A16.02 16.02 0 0 1 4.74 27.163l1.414-1.414c4.69 4.689 12.1 5.439 17.619 1.783l1.105 1.667a15.911 15.911 0 0 1-8.8 2.641zM29.401 24.674l-1.668-1.104c3.658-5.52 2.909-12.929-1.781-17.62l1.414-1.414c5.361 5.36 6.216 13.83 2.035 20.138z"/><path d="M32.052 15.863h-2c0-6.628-4.754-12.403-11.305-13.733l.398-1.96c7.479 1.518 12.907 8.118 12.907 15.693zM15.947 31.85c-8.822 0-16-7.178-16-16 0-7.58 5.384-14.173 12.801-15.679l.397 1.96C6.657 3.448 1.947 9.217 1.947 15.85c0 7.72 6.28 14 14 14v2z"/></symbol><symbol viewBox="0 0 32 32" id="Timer"><path d="M16 32C8.832 32 3 26.168 3 19c0-5.261 3.138-9.972 7.994-12.002l.771 1.845A10.982 10.982 0 0 0 5 19c0 6.065 4.935 11 11 11 5.68 0 10.495-4.429 10.963-10.083l1.994.165C28.403 26.765 22.712 32 16 32zM26.953 18.081a10.95 10.95 0 0 0-6.719-9.239l.771-1.845a12.94 12.94 0 0 1 7.941 10.921l-1.993.163z"/><path d="M19 9h-2V4h3V2h-8v2h3v5h-2V6h-3V0h12v6h-3zM28.293 4.293l1.414 1.414-3 3-1.414-1.414 3-3z"/><path d="M28.293 2.878l2.828 2.828-1.414 1.414-2.828-2.828 1.414-1.414zM24 20h-9v-9h2v7h7z"/></symbol><symbol viewBox="0 0 32 32" id="Tools"><path d="M4 7a2.978 2.978 0 0 1-2.122-.879L.464 4.707 4.706.465 6.12 1.879c.568.566.88 1.32.88 2.123 0 .801-.313 1.555-.881 2.121A2.976 2.976 0 0 1 4 7zm-.708-2.293c.189.189.44.293.708.293a.992.992 0 0 0 .706-.292c.19-.19.294-.44.294-.706a.992.992 0 0 0-.293-.708v-.001L3.292 4.707z"/><path d="M6.107 4.695l6.328 6.103-1.388 1.44-6.328-6.103 1.388-1.44zM21.984 20.346l5.464 5.464-1.414 1.414-5.464-5.464 1.414-1.414z"/><path d="M26.742 31.514a4.97 4.97 0 0 1-3.526-1.457l-6.084-6.084 1.414-1.414 6.084 6.084a3 3 0 0 0 4.236-.007 3.009 3.009 0 0 0-.006-4.249l-6.072-6.071 1.414-1.414 6.072 6.071c1.953 1.955 1.955 5.129.006 7.078a4.997 4.997 0 0 1-3.538 1.463zM23.516 15.486a6.958 6.958 0 0 1-4.95-2.052 6.947 6.947 0 0 1-2.051-4.948c0-1.871.728-3.629 2.051-4.951l1.828-1.828 1.414 1.414-1.828 1.828a4.964 4.964 0 0 0-1.465 3.536c0 1.335.521 2.591 1.465 3.535s2.2 1.466 3.535 1.466 2.59-.521 3.535-1.466l1.828-1.828 1.414 1.414-1.828 1.828a6.943 6.943 0 0 1-4.948 2.052z"/><path d="M30.293 11.606l-2.121-2.121-.707.707a3.97 3.97 0 0 1-2.828 1.172h-.001c-1.068-.001-2.073-.417-2.828-1.172s-1.171-1.759-1.171-2.828a3.98 3.98 0 0 1 1.171-2.829l.708-.707-2.121-2.121L21.809.293l3.535 3.535-2.121 2.121c-.378.379-.586.881-.586 1.415s.208 1.036.586 1.413a1.98 1.98 0 0 0 1.414.587c.534 0 1.036-.208 1.414-.586l2.122-2.121 3.535 3.535-1.415 1.414zM4.031 25.969h2v2h-2v-2zM14.568 12.882l3.967 3.922-1.406 1.422-3.967-3.922 1.406-1.422z"/><path d="M5 32a4.968 4.968 0 0 1-3.536-1.465C.521 29.592 0 28.336 0 27s.521-2.592 1.465-3.535l.119-.102 10.346-7.516 1.176 1.617-10.278 7.468A2.972 2.972 0 0 0 2 27c0 .801.312 1.555.879 2.121 1.116 1.117 3.052 1.137 4.189.051l7.468-10.275 1.618 1.176-7.618 10.462A4.969 4.969 0 0 1 5 32z"/></symbol><symbol viewBox="0 0 32 32" id="Trousers"><path d="M29 7H3V1h26v6zM5 5h22V3H5v2zM7.709 17.016l-4.323-.097.045-1.999 2.85.064 1.773-5.301 1.896.634z"/><path d="M31.105 31H19.279L16 21.182 12.72 31H.895l2.11-21.1 1.99.2L3.105 29h8.175L16 14.869 20.721 29h8.174l-1.89-18.9 1.99-.2z"/><path d="M24.29 17.016l-2.24-6.699 1.896-.634 1.774 5.301 2.849-.064.045 1.999z"/></symbol><symbol viewBox="0 0 32 32" id="Truck"><path d="M20 23H0V3h20v20zM2 21h16V5H2v16zM32 23H22v-2h8v-6.764L27.382 9H24v6h4v2h-6V7h6.618L32 13.764z"/><path d="M4 15h12v2H4v-2zM27 29c-2.206 0-4-1.794-4-4h2c0 1.103.897 2 2 2s2-.897 2-2h2c0 2.206-1.794 4-4 4zM8 29c-2.206 0-4-1.794-4-4h2c0 1.103.897 2 2 2s2-.897 2-2h2c0 2.206-1.794 4-4 4z"/></symbol><symbol viewBox="0 0 32 32" id="Tshirt"><path d="M25.995 32h-20V12h2v18h16V12h2z"/><path d="M1 15.1L-.06 4.502 6.682 0h6.303v1c0 1.654 1.346 3 3 3s3-1.346 3-3V0h6.302l6.771 4.5-1.034 10.598-1.99-.194.917-9.404L24.684 2h-3.799c-.465 2.279-2.485 4-4.9 4s-4.435-1.721-4.899-4H7.289L2.05 5.498l.94 9.402-1.99.2z"/></symbol><symbol viewBox="0 0 32 32" id="Typing"><path d="M9 15c-1.654 0-3-1.346-3-3s1.346-3 3-3 3 1.346 3 3-1.346 3-3 3zm0-4c-.551 0-1 .449-1 1s.449 1 1 1 1-.449 1-1-.449-1-1-1zM16 15c-1.654 0-3-1.346-3-3s1.346-3 3-3 3 1.346 3 3-1.346 3-3 3zm0-4c-.551 0-1 .449-1 1s.449 1 1 1 1-.449 1-1-.449-1-1-1zM23 15c-1.654 0-3-1.346-3-3s1.346-3 3-3 3 1.346 3 3-1.346 3-3 3zm0-4c-.551 0-1 .449-1 1s.449 1 1 1 1-.449 1-1-.449-1-1-1z"/><path d="M0 31.439V2h32v21H9v-2h21V4H2v21.561l3.208-4.17 1.584 1.218z"/></symbol><symbol viewBox="0 0 32 32" id="Umbrella"><path d="M8.454 15.34l-1.886-.666A10.024 10.024 0 0 1 16 8v2a8.02 8.02 0 0 0-7.546 5.34zM15 0h2v2h-2V0zM15 21h2v8h-2v-8zM14 32c-1.654 0-3-1.346-3-3h2a1.001 1.001 0 0 0 2 0h2c0 1.654-1.345 3-3 3z"/><path d="M30 19H2v-1C2 10.28 8.28 4 16 4c7.719 0 14 6.28 14 14v1zM4.041 17h23.918C27.449 10.85 22.28 6 16 6S4.551 10.85 4.041 17z"/></symbol><symbol viewBox="0 0 32 32" id="Underpants"><path d="M32 10H0V4h32v6zM2 8h28V6H2v2zM19 28.01h-6V26c0-4.962-4.037-9-9-9H0v-4.997h2V15h2c6.065 0 11 4.935 11 11v.01l2-.01c0-6.065 4.935-11 11-11h2v-2.997h2V17h-4c-4.963 0-9 4.038-9 9v2.01z"/></symbol><symbol viewBox="0 0 32 32" id="Unlinked"><path d="M25.534 19.192l-1.414-1.414 3.829-3.828c2.729-2.731 2.729-7.172 0-9.9-2.729-2.729-7.171-2.729-9.899 0l-3.829 3.828-1.414-1.414 3.829-3.828c3.509-3.509 9.218-3.509 12.728 0 3.509 3.507 3.509 9.218 0 12.729l-3.83 3.827zM9 31.996a8.97 8.97 0 0 1-6.364-2.632c-3.509-3.509-3.509-9.219 0-12.729l3.829-3.83L7.88 14.22l-3.829 3.83c-2.729 2.729-2.729 7.171 0 9.9s7.17 2.729 9.899 0l3.829-3.83 1.414 1.414-3.829 3.83A8.969 8.969 0 0 1 9 31.996zM5.707 4.292l8 8-1.414 1.414-8-8 1.414-1.414zM19.707 18.292l8 8-1.414 1.414-8-8 1.414-1.414z"/></symbol><symbol viewBox="0 0 32 32" id="UploadCLoud"><path d="M20.996 25v-2c4.962 0 9-4.037 9-9 0-4.938-3.997-8.959-8.925-9-4.677.039-8.659 3.607-9.083 8.155-.014.157-.006.317 0 .479.004.121.008.242.008.365h-2c0-.099-.004-.196-.007-.294a5.627 5.627 0 0 1 .008-.735c.515-5.543 5.332-9.894 10.999-9.97l.151.001C27.143 3.082 31.996 7.984 31.996 14c0 6.065-4.935 11-11 11z"/><path d="M15.997 14h-2c0-.144-.005-.287-.01-.43l-.015-.135.009-.096C14.3 9.89 17.476 7.045 21.059 7l.025 2c-2.56.032-4.829 2.014-5.104 4.436.012.226.017.395.017.564zM11 25H8.005C3.593 25 .004 21.411.004 17s3.589-8 8-8v2c-3.309 0-6 2.691-6 6s2.692 6 6.001 6H11v2zM14.996 20h2v8h-2v-8z"/><path d="M18.314 23.729l-2.317-2.182-2.31 2.18-1.374-1.454 3.682-3.476 3.691 3.474z"/></symbol><symbol viewBox="0 0 32 32" id="User"><path d="M15.778 18c-4.962 0-9-4.038-9-9s4.038-9 9-9 8.999 4.038 8.999 9-4.037 9-8.999 9zm0-16c-3.86 0-7 3.14-7 7s3.14 7 7 7c3.859 0 6.999-3.14 6.999-7s-3.139-7-6.999-7zM29.117 32H2.883l1.189-10.706 5.556-2.223.744 1.858-4.444 1.777L5.117 30h21.766l-.811-7.294-4.444-1.777.744-1.858 5.556 2.223z"/></symbol><symbol viewBox="0 0 32 32" id="Users"><path d="M12.001 18C7.038 18 3 13.963 3 9.001 3 4.038 7.038 0 12.001 0 16.963 0 21 4.038 21 9.001 21 13.963 16.963 18 12.001 18zm0-16A7.01 7.01 0 0 0 5 9.001C5 12.86 8.141 16 12.001 16A7.007 7.007 0 0 0 19 9.001C19 5.141 15.86 2 12.001 2zM23 18v-2c2.757 0 5-2.243 5-4.999 0-2.757-2.243-5-5-5V4c3.86 0 7 3.141 7 7 0 3.86-3.14 7-7 7zM32 30h-6v-2h3.694l-.742-5.197-3.201-.86.498-1.937 4.494 1.191zM24.125 32H-.125l1.234-10.422 4.716-1.529.617 1.902-3.498 1.134L2.125 30h19.75l-.819-6.915-3.498-1.134.617-1.902 4.716 1.529z"/></symbol><symbol viewBox="0 0 32 32" id="Video"><path d="M20 27H0V11h13.966v2H2v12h16V8.847L6.853 6.986l.329-1.972L20 7.153z"/><path d="M4 15h9.966v2H4v-2zM32 27.281l-9.242-2.311.484-1.94L30 24.719V13.281l-6.758 1.689-.484-1.94L32 10.719z"/></symbol><symbol viewBox="0 0 32 32" id="Volume"><path d="M20 29.822L7.463 21.844l1.074-1.688L18 26.178V5.822l-9.463 6.022-1.074-1.688L20 2.178z"/><path d="M14.484 11.142l1.029 1.715-5 3.001-1.029-1.715 5-3.001zM6 22H0V10h6v12zm-4-2h2v-8H2v8zM22 22v-2c2.206 0 4-1.794 4-4s-1.794-4-4-4v-2c3.309 0 6 2.691 6 6s-2.691 6-6 6z"/><path d="M22 26v-2c4.411 0 8-3.589 8-8s-3.589-8-8-8V6c5.514 0 10 4.486 10 10s-4.486 10-10 10z"/><path d="M22 18v-4c1.103 0 2 .897 2 2s-.897 2-2 2z"/></symbol><symbol viewBox="0 0 32 32" id="Wallet"><path d="M32 31H0V11h2v18h28V10.979h2zM0 9.001V1h32v2H2v3.999l29.999-.02.002 2z"/><path d="M28 24h-4c-2.206 0-4-1.794-4-4s1.794-4 4-4h4v2h-4c-1.103 0-2 .897-2 2s.897 2 2 2h4v2z"/></symbol><symbol viewBox="0 0 32 32" id="Watch"><path d="M16 25c-4.963 0-9-4.037-9-9s4.037-9 9-9 9 4.037 9 9-4.037 9-9 9zm0-16c-3.859 0-7 3.141-7 7s3.141 7 7 7 7-3.141 7-7-3.141-7-7-7z"/><path d="M22.168 8.555L20.465 6h-8.93L9.832 8.555l-1.664-1.11L10.465 4h11.07l2.297 3.445z"/><path d="M22 5h-2V2h-8v3h-2V0h12zM21.536 28H10.467L8.17 24.553l1.664-1.11L11.537 26h8.929l1.703-2.557 1.664 1.11z"/><path d="M22.001 32H10.002v-5h2v3h7.999v-3h2zM21 17h-6v-6h2v4h4z"/></symbol><symbol viewBox="0 0 32 32" id="Water"><path d="M19 15.999v-2c1.654 0 3-1.346 3-3h2c0 2.757-2.243 5-5 5zM13 0h6v2h-6V0z"/><path d="M19 32h-6c-2.757 0-5-2.243-5-5v-8c0-1.634.788-3.087 2.003-4A4.997 4.997 0 0 1 8 11V9c0-2.757 2.244-5 5.002-5h6A5.004 5.004 0 0 1 24 8.999V11h-2V8.999A3.002 3.002 0 0 0 19.002 6h-6A3.005 3.005 0 0 0 10 9v2c0 1.654 1.346 3 3 3v2c-1.654 0-3 1.346-3 3v8c0 1.654 1.346 3 3 3h6c1.654 0 3-1.346 3-3.001V19c0-1.654-1.346-3-3-3v-2c2.757 0 5 2.243 5 5v7.999A5.007 5.007 0 0 1 19 32z"/><path d="M14 11h-2c0-1.654 1.346-3 3-3v2c-.551 0-1 .449-1 1zM15 28.006c-1.654 0-3-1.349-3-3.006v-6h2v6c0 .555.449 1.006 1 1.006v2z"/></symbol><symbol viewBox="0 0 32 32" id="Web"><path d="M32 29H0V13h2v14h28V13h2zM32 11H0V3h32v8zM2 9h28V5H2v4z"/><path d="M4 6h2v2H4V6zM7 6h2v2H7V6zM10 6h2v2h-2V6zM12 25H4V13h8v12zm-6-2h4v-8H6v8zM28 25H14V13h14v12zm-12-2h10v-8H16v8z"/></symbol><symbol viewBox="0 0 32 32" id="Webcam"><path d="M16 24C9.383 24 4 18.617 4 12S9.383 0 16 0s12 5.383 12 12-5.383 12-12 12zm0-22C10.486 2 6 6.486 6 12s4.486 10 10 10 10-4.486 10-10S21.514 2 16 2z"/><path d="M16 18c-3.309 0-6-2.691-6-6s2.691-6 6-6 6 2.691 6 6-2.691 6-6 6zm0-10c-2.206 0-4 1.794-4 4s1.794 4 4 4 4-1.794 4-4-1.794-4-4-4z"/><path d="M16 12h-2c0-1.103.897-2 2-2v2zM27.477 32H4.523l2.548-6.371 1.858.742L7.477 30h17.046l-1.452-3.629 1.858-.742z"/></symbol><symbol viewBox="0 0 32 32" id="Wheelbarrow"><path d="M5.993 26.003a6.008 6.008 0 0 1-5.277-8.844 6.007 6.007 0 0 1 8.125-2.444l-.946 1.762a4.005 4.005 0 0 0-5.417 1.63 4.005 4.005 0 0 0 1.63 5.417 3.976 3.976 0 0 0 3.046.307 3.973 3.973 0 0 0 2.371-1.937l1.762.947a5.959 5.959 0 0 1-3.556 2.904 6.005 6.005 0 0 1-1.738.258z"/><path d="M30.699 11.091l.606 1.906-25 7.955-.606-1.906 25-7.955zM12.249 15.658L3.797 6h21.204v6h-2V8H8.205l5.548 6.342zM18.781 19.376l4 5-1.562 1.249-4-5 1.562-1.249z"/></symbol><symbol viewBox="0 0 32 32" id="WineGlass"><path d="M16 18C9.383 18 4 12.617 4 6V0h24v6c0 6.617-5.383 12-12 12zM6 2v4c0 5.514 4.486 10 10 10s10-4.486 10-10V2H6zM15 20h2v12h-2V20z"/><path d="M7 30h18v2H7v-2zM16 14c-4.411 0-8-3.589-8-8V5h2v1c0 3.309 2.691 6 6 6v2z"/></symbol><symbol viewBox="0 0 32 32" id="WorldGlobe"><path d="M14.006 27.998c-4.097 0-8.194-1.56-11.313-4.678l1.414-1.414c5.459 5.458 14.341 5.456 19.8 0 5.458-5.46 5.458-14.342 0-19.799L25.321.693c6.238 6.236 6.238 16.387 0 22.627a15.957 15.957 0 0 1-11.315 4.678z"/><path d="M14 24C7.383 24 2 18.617 2 12S7.383 0 14 0s12 5.383 12 12-5.384 12-12 12zm0-22C8.485 2 4 6.486 4 12s4.486 10 10 10 10-4.486 10-10S19.514 2 14 2zM9 30h10v2H9v-2z"/><path d="M14.444 20.716l1.015-7.093-4.304-2.365 2.481-3.345-.397-.154-3.487.874L7.52 6.768l1.283-1.536 1.45 1.213 3.117-.782 3.434 1.334-2.677 3.612 3.508 1.928-.393 2.747 1.498-1.428 1.288-5.241 1.943.477-1.429 5.809z"/><path d="M10.728 17.46l-1.969-.354.377-2.092-2.246-.248.219-1.989 4.375.483z"/></symbol><symbol viewBox="0 0 32 32" id="WorldWide"><path d="M16 32C7.178 32 0 24.822 0 16S7.178 0 16 0s16 7.178 16 16-7.178 16-16 16zm0-30C8.28 2 2 8.28 2 16s6.28 14 14 14 14-6.28 14-14S23.72 2 16 2z"/><path d="M17.545 28.559l1.403-8.975-6.519-3.275 3.893-4.805-1.366-.485-5.296 1.215-3.228-2.469 1.214-1.588 2.483 1.897 4.948-1.136 4.578 1.628-4.108 5.071 5.602 2.814-.78 4.99 3.593-3.133 2.028-7.548 1.932.519-2.187 8.136zM10.476 25.177l-1.963-.385.665-3.39-4.043-.407.2-1.99 6.229.628z"/></symbol><symbol viewBox="0 0 32 32" id="Wrench"><path d="M22.772 16.224a6.98 6.98 0 0 1-4.949-2.047 6.95 6.95 0 0 1-2.051-4.948 6.952 6.952 0 0 1 2.051-4.952l2.828-2.828 1.414 1.414-2.828 2.828c-.945.945-1.465 2.201-1.465 3.536s.521 2.591 1.465 3.535a5.006 5.006 0 0 0 7.071 0l2.828-2.828 1.414 1.414-2.828 2.828a6.977 6.977 0 0 1-4.95 2.048z"/><path d="M30.551 11.349L28.43 9.228l-.707.707a4.004 4.004 0 0 1-5.657 0 3.97 3.97 0 0 1-1.172-2.828c0-1.067.416-2.073 1.172-2.829l.707-.707-2.121-2.121L22.066.036l3.535 3.535-2.121 2.121c-.378.379-.586.881-.586 1.415s.208 1.036.586 1.413c.378.379.88.587 1.414.587h.001c.534 0 1.036-.208 1.414-.586L28.43 6.4l3.535 3.535-1.414 1.414zM4.031 25.969h2v2h-2v-2zM14.568 13.624l3.967 3.922-1.406 1.422-3.967-3.922 1.406-1.422z"/><path d="M5 32a4.965 4.965 0 0 1-3.535-1.465C.521 29.592 0 28.336 0 27s.521-2.592 1.465-3.535l.123-.104 10.088-7.258 1.168 1.623-10.018 7.208A2.974 2.974 0 0 0 2 27c0 .801.313 1.555.879 2.121 1.115 1.117 3.05 1.137 4.188.053l7.209-10.016 1.623 1.168-7.364 10.209A4.965 4.965 0 0 1 5 32z"/></symbol><symbol viewBox="0 0 442.533 442.533" id="tick"><path d="M434.539 98.499l-38.828-38.828c-5.324-5.328-11.799-7.993-19.41-7.993-7.618 0-14.093 2.665-19.417 7.993L169.59 247.248l-83.939-84.225c-5.33-5.33-11.801-7.992-19.412-7.992-7.616 0-14.087 2.662-19.417 7.992L7.994 201.852C2.664 207.181 0 213.654 0 221.269c0 7.609 2.664 14.088 7.994 19.416l103.351 103.349 38.831 38.828c5.327 5.332 11.8 7.994 19.414 7.994 7.611 0 14.084-2.669 19.414-7.994l38.83-38.828L434.539 137.33c5.325-5.33 7.994-11.802 7.994-19.417.004-7.611-2.669-14.084-7.994-19.414z"/></symbol></svg>